<svg width="25" height="25" viewBox="0 0 25 25" fill="none" xmlns="http://www.w3.org/2000/svg">
<path d="M10.7445 17.5854L17.7945 10.5354L16.3945 9.13541L10.7445 14.7854L7.89453 11.9354L6.49453 13.3354L10.7445 17.5854ZM12.1445 22.9854C10.7612 22.9854 9.4612 22.7229 8.24453 22.1979C7.02786 21.6729 5.96953 20.9604 5.06953 20.0604C4.16953 19.1604 3.45703 18.1021 2.93203 16.8854C2.40703 15.6687 2.14453 14.3687 2.14453 12.9854C2.14453 11.6021 2.40703 10.3021 2.93203 9.08541C3.45703 7.86875 4.16953 6.81041 5.06953 5.91041C5.96953 5.01041 7.02786 4.29791 8.24453 3.77291C9.4612 3.24791 10.7612 2.98541 12.1445 2.98541C13.5279 2.98541 14.8279 3.24791 16.0445 3.77291C17.2612 4.29791 18.3195 5.01041 19.2195 5.91041C20.1195 6.81041 20.832 7.86875 21.357 9.08541C21.882 10.3021 22.1445 11.6021 22.1445 12.9854C22.1445 14.3687 21.882 15.6687 21.357 16.8854C20.832 18.1021 20.1195 19.1604 19.2195 20.0604C18.3195 20.9604 17.2612 21.6729 16.0445 22.1979C14.8279 22.7229 13.5279 22.9854 12.1445 22.9854ZM12.1445 20.9854C14.3779 20.9854 16.2695 20.2104 17.8195 18.6604C19.3695 17.1104 20.1445 15.2187 20.1445 12.9854C20.1445 10.7521 19.3695 8.86041 17.8195 7.31041C16.2695 5.76041 14.3779 4.98541 12.1445 4.98541C9.9112 4.98541 8.01953 5.76041 6.46953 7.31041C4.91953 8.86041 4.14453 10.7521 4.14453 12.9854C4.14453 15.2187 4.91953 17.1104 6.46953 18.6604C8.01953 20.2104 9.9112 20.9854 12.1445 20.9854Z" fill="white"/>
</svg>
