<svg width="56" height="56" viewBox="0 0 56 56" fill="none" xmlns="http://www.w3.org/2000/svg">
<circle cx="28" cy="28" r="28" fill="#6A976E"/>
<path d="M16.3333 21.3333V39.6667H39.6667V21.3333H34.6667V31.9583C34.6667 32.5972 34.4028 33.0764 33.875 33.3958C33.3472 33.7153 32.8056 33.7361 32.25 33.4583L28 31.3333L23.75 33.4583C23.1944 33.7361 22.6528 33.7153 22.125 33.3958C21.5972 33.0764 21.3333 32.5972 21.3333 31.9583V21.3333H16.3333ZM16.3333 43C15.4167 43 14.6319 42.6736 13.9792 42.0208C13.3264 41.3681 13 40.5833 13 39.6667V18.875C13 18.4861 13.0625 18.1111 13.1875 17.75C13.3125 17.3889 13.5 17.0556 13.75 16.75L15.8333 14.2083C16.1389 13.8194 16.5208 13.5208 16.9792 13.3125C17.4375 13.1042 17.9167 13 18.4167 13H37.5833C38.0833 13 38.5625 13.1042 39.0208 13.3125C39.4792 13.5208 39.8611 13.8194 40.1667 14.2083L42.25 16.75C42.5 17.0556 42.6875 17.3889 42.8125 17.75C42.9375 18.1111 43 18.4861 43 18.875V39.6667C43 40.5833 42.6736 41.3681 42.0208 42.0208C41.3681 42.6736 40.5833 43 39.6667 43H16.3333ZM17 18H39L37.5833 16.3333H18.4167L17 18ZM24.6667 21.3333V29.25L28 27.5833L31.3333 29.25V21.3333H24.6667Z" fill="white"/>
</svg>
