<svg width="56" height="56" viewBox="0 0 56 56" fill="none" xmlns="http://www.w3.org/2000/svg">
<circle cx="28" cy="28" r="28" fill="#6A976E"/>
<path d="M25.6673 35.6668L37.4173 23.9168L35.084 21.5835L25.6673 31.0002L20.9173 26.2502L18.584 28.5835L25.6673 35.6668ZM28.0007 44.6668C25.6951 44.6668 23.5284 44.2293 21.5007 43.3543C19.4729 42.4793 17.709 41.2918 16.209 39.7918C14.709 38.2918 13.5215 36.5279 12.6465 34.5002C11.7715 32.4724 11.334 30.3057 11.334 28.0002C11.334 25.6946 11.7715 23.5279 12.6465 21.5002C13.5215 19.4724 14.709 17.7085 16.209 16.2085C17.709 14.7085 19.4729 13.521 21.5007 12.646C23.5284 11.771 25.6951 11.3335 28.0007 11.3335C30.3062 11.3335 32.4729 11.771 34.5007 12.646C36.5284 13.521 38.2923 14.7085 39.7923 16.2085C41.2923 17.7085 42.4798 19.4724 43.3548 21.5002C44.2298 23.5279 44.6673 25.6946 44.6673 28.0002C44.6673 30.3057 44.2298 32.4724 43.3548 34.5002C42.4798 36.5279 41.2923 38.2918 39.7923 39.7918C38.2923 41.2918 36.5284 42.4793 34.5007 43.3543C32.4729 44.2293 30.3062 44.6668 28.0007 44.6668ZM28.0007 41.3335C31.7229 41.3335 34.8757 40.0418 37.459 37.4585C40.0423 34.8752 41.334 31.7224 41.334 28.0002C41.334 24.2779 40.0423 21.1252 37.459 18.5418C34.8757 15.9585 31.7229 14.6668 28.0007 14.6668C24.2784 14.6668 21.1257 15.9585 18.5423 18.5418C15.959 21.1252 14.6673 24.2779 14.6673 28.0002C14.6673 31.7224 15.959 34.8752 18.5423 37.4585C21.1257 40.0418 24.2784 41.3335 28.0007 41.3335Z" fill="white"/>
</svg>
