<svg width="24" height="25" viewBox="0 0 24 25" fill="none" xmlns="http://www.w3.org/2000/svg">
<path d="M13.375 22.325C13.5583 22.375 13.7708 22.3958 14.0125 22.3875C14.2542 22.3792 14.4583 22.3417 14.625 22.275L22 19.5C22 18.9333 21.8 18.4583 21.4 18.075C21 17.6917 20.5333 17.5 20 17.5H13.15C13.1 17.5 13.0417 17.4958 12.975 17.4875C12.9083 17.4792 12.8583 17.4667 12.825 17.45L11.35 16.925C11.2167 16.875 11.125 16.7917 11.075 16.675C11.025 16.5583 11.0167 16.4333 11.05 16.3C11.0833 16.1833 11.1667 16.0917 11.3 16.025C11.4333 15.9583 11.5667 15.95 11.7 16L12.825 16.425C12.8917 16.4583 12.9458 16.4792 12.9875 16.4875C13.0292 16.4958 13.0917 16.5 13.175 16.5H15.8C16.1167 16.5 16.3958 16.3917 16.6375 16.175C16.8792 15.9583 17 15.675 17 15.325C17 15.0917 16.9292 14.8667 16.7875 14.65C16.6458 14.4333 16.4583 14.2833 16.225 14.2L9.3 11.625C9.18333 11.5917 9.06667 11.5625 8.95 11.5375C8.83333 11.5125 8.71667 11.5 8.6 11.5H7V20.525L13.375 22.325ZM1 20.5C1 21.05 1.19583 21.5208 1.5875 21.9125C1.97917 22.3042 2.45 22.5 3 22.5C3.55 22.5 4.02083 22.3042 4.4125 21.9125C4.80417 21.5208 5 21.05 5 20.5V13.5C5 12.95 4.80417 12.4792 4.4125 12.0875C4.02083 11.6958 3.55 11.5 3 11.5C2.45 11.5 1.97917 11.6958 1.5875 12.0875C1.19583 12.4792 1 12.95 1 13.5V20.5ZM16 12.7C15.75 12.7 15.5042 12.6542 15.2625 12.5625C15.0208 12.4708 14.8 12.3333 14.6 12.15L11.85 9.45C11.3333 8.95 10.8958 8.39583 10.5375 7.7875C10.1792 7.17917 10 6.51667 10 5.8C10 4.88333 10.3208 4.10417 10.9625 3.4625C11.6042 2.82083 12.3833 2.5 13.3 2.5C13.8333 2.5 14.3333 2.6125 14.8 2.8375C15.2667 3.0625 15.6667 3.36667 16 3.75C16.3333 3.36667 16.7333 3.0625 17.2 2.8375C17.6667 2.6125 18.1667 2.5 18.7 2.5C19.6167 2.5 20.3958 2.82083 21.0375 3.4625C21.6792 4.10417 22 4.88333 22 5.8C22 6.51667 21.825 7.17917 21.475 7.7875C21.125 8.39583 20.6917 8.95 20.175 9.45L17.4 12.15C17.2 12.3333 16.9792 12.4708 16.7375 12.5625C16.4958 12.6542 16.25 12.7 16 12.7Z" fill="#6A976E"/>
</svg>
