<svg width="56" height="56" viewBox="0 0 56 56" fill="none" xmlns="http://www.w3.org/2000/svg">
<circle cx="28" cy="28" r="28" fill="#6A976E"/>
<path d="M43.0007 21.3332C43.8895 21.3332 44.6673 21.6665 45.334 22.3332C46.0007 22.9998 46.334 23.7776 46.334 24.6665V27.9998C46.334 28.1943 46.3062 28.4026 46.2507 28.6248C46.1951 28.8471 46.1395 29.0554 46.084 29.2498L41.084 40.9998C40.834 41.5554 40.4173 42.0276 39.834 42.4165C39.2507 42.8054 38.6395 42.9998 38.0007 42.9998H19.6673V21.3332L29.6673 11.4165C30.084 10.9998 30.577 10.7568 31.1465 10.6873C31.7159 10.6179 32.2645 10.7221 32.7923 10.9998C33.3201 11.2776 33.709 11.6665 33.959 12.1665C34.209 12.6665 34.2645 13.1804 34.1257 13.7082L32.2507 21.3332H43.0007ZM23.0007 22.7498V39.6665H38.0007L43.0007 27.9998V24.6665H28.0007L30.2507 15.4998L23.0007 22.7498ZM14.6673 42.9998C13.7507 42.9998 12.9659 42.6734 12.3132 42.0207C11.6604 41.3679 11.334 40.5832 11.334 39.6665V24.6665C11.334 23.7498 11.6604 22.9651 12.3132 22.3123C12.9659 21.6596 13.7507 21.3332 14.6673 21.3332H19.6673V24.6665H14.6673V39.6665H19.6673V42.9998H14.6673Z" fill="white"/>
</svg>
