<svg width="17" height="17" viewBox="0 0 17 17" fill="none" xmlns="http://www.w3.org/2000/svg">
<path d="M4.19857 5.36849V12.7018H13.5319V5.36849H11.5319V9.61849C11.5319 9.87405 11.4263 10.0657 11.2152 10.1935C11.0041 10.3213 10.7875 10.3296 10.5652 10.2185L8.86523 9.36849L7.16523 10.2185C6.94301 10.3296 6.72635 10.3213 6.51523 10.1935C6.30412 10.0657 6.19857 9.87405 6.19857 9.61849V5.36849H4.19857ZM4.19857 14.0352C3.8319 14.0352 3.51801 13.9046 3.2569 13.6435C2.99579 13.3824 2.86523 13.0685 2.86523 12.7018V4.38516C2.86523 4.2296 2.89023 4.0796 2.94023 3.93516C2.99023 3.79071 3.06523 3.65738 3.16523 3.53516L3.99857 2.51849C4.12079 2.36293 4.27357 2.24349 4.4569 2.16016C4.64023 2.07682 4.8319 2.03516 5.0319 2.03516H12.6986C12.8986 2.03516 13.0902 2.07682 13.2736 2.16016C13.4569 2.24349 13.6097 2.36293 13.7319 2.51849L14.5652 3.53516C14.6652 3.65738 14.7402 3.79071 14.7902 3.93516C14.8402 4.0796 14.8652 4.2296 14.8652 4.38516V12.7018C14.8652 13.0685 14.7347 13.3824 14.4736 13.6435C14.2125 13.9046 13.8986 14.0352 13.5319 14.0352H4.19857ZM4.46523 4.03516H13.2652L12.6986 3.36849H5.0319L4.46523 4.03516ZM7.5319 5.36849V8.53516L8.86523 7.86849L10.1986 8.53516V5.36849H7.5319Z" fill="#F23030"/>
</svg>
