<svg width="25" height="25" viewBox="0 0 25 25" fill="none" xmlns="http://www.w3.org/2000/svg">
<path d="M5.43506 19.4321H6.86006L16.6351 9.65713L15.2101 8.23213L5.43506 18.0071V19.4321ZM3.43506 21.4321V17.1821L16.6351 4.00713C16.8351 3.8238 17.0559 3.68213 17.2976 3.58213C17.5392 3.48213 17.7934 3.43213 18.0601 3.43213C18.3267 3.43213 18.5851 3.48213 18.8351 3.58213C19.0851 3.68213 19.3017 3.83213 19.4851 4.03213L20.8601 5.43213C21.0601 5.61546 21.2059 5.83213 21.2976 6.08213C21.3892 6.33213 21.4351 6.58213 21.4351 6.83213C21.4351 7.0988 21.3892 7.35296 21.2976 7.59463C21.2059 7.8363 21.0601 8.05713 20.8601 8.25713L7.68506 21.4321H3.43506ZM15.9101 8.95713L15.2101 8.23213L16.6351 9.65713L15.9101 8.95713Z" fill="#464A48"/>
</svg>
