<svg width="56" height="56" viewBox="0 0 56 56" fill="none" xmlns="http://www.w3.org/2000/svg">
<circle cx="28" cy="28" r="28" fill="#6A976E"/>
<path d="M17.9993 41.3332C16.6105 41.3332 15.4299 40.8471 14.4577 39.8748C13.4855 38.9026 12.9993 37.7221 12.9993 36.3332H11.3327C10.8605 36.3332 10.4646 36.1734 10.1452 35.854C9.82574 35.5346 9.66602 35.1387 9.66602 34.6665V17.9998C9.66602 17.0832 9.9924 16.2984 10.6452 15.6457C11.298 14.9929 12.0827 14.6665 12.9993 14.6665H32.9993C33.916 14.6665 34.7007 14.9929 35.3535 15.6457C36.0063 16.2984 36.3327 17.0832 36.3327 17.9998V21.3332H39.666C40.1938 21.3332 40.6938 21.4512 41.166 21.6873C41.6382 21.9234 42.0271 22.2498 42.3327 22.6665L45.9993 27.5415C46.1105 27.6804 46.1938 27.8332 46.2493 27.9998C46.3049 28.1665 46.3327 28.3471 46.3327 28.5415V34.6665C46.3327 35.1387 46.173 35.5346 45.8535 35.854C45.5341 36.1734 45.1382 36.3332 44.666 36.3332H42.9993C42.9993 37.7221 42.5132 38.9026 41.541 39.8748C40.5688 40.8471 39.3882 41.3332 37.9993 41.3332C36.6105 41.3332 35.4299 40.8471 34.4577 39.8748C33.4855 38.9026 32.9993 37.7221 32.9993 36.3332H22.9993C22.9993 37.7221 22.5132 38.9026 21.541 39.8748C20.5688 40.8471 19.3882 41.3332 17.9993 41.3332ZM17.9993 37.9998C18.4716 37.9998 18.8674 37.8401 19.1868 37.5207C19.5063 37.2012 19.666 36.8054 19.666 36.3332C19.666 35.8609 19.5063 35.4651 19.1868 35.1457C18.8674 34.8262 18.4716 34.6665 17.9993 34.6665C17.5271 34.6665 17.1313 34.8262 16.8118 35.1457C16.4924 35.4651 16.3327 35.8609 16.3327 36.3332C16.3327 36.8054 16.4924 37.2012 16.8118 37.5207C17.1313 37.8401 17.5271 37.9998 17.9993 37.9998ZM12.9993 32.9998H14.3327C14.8049 32.4998 15.3466 32.0971 15.9577 31.7915C16.5688 31.4859 17.2493 31.3332 17.9993 31.3332C18.7493 31.3332 19.4299 31.4859 20.041 31.7915C20.6521 32.0971 21.1938 32.4998 21.666 32.9998H32.9993V17.9998H12.9993V32.9998ZM37.9993 37.9998C38.4716 37.9998 38.8674 37.8401 39.1868 37.5207C39.5063 37.2012 39.666 36.8054 39.666 36.3332C39.666 35.8609 39.5063 35.4651 39.1868 35.1457C38.8674 34.8262 38.4716 34.6665 37.9993 34.6665C37.5271 34.6665 37.1313 34.8262 36.8118 35.1457C36.4924 35.4651 36.3327 35.8609 36.3327 36.3332C36.3327 36.8054 36.4924 37.2012 36.8118 37.5207C37.1313 37.8401 37.5271 37.9998 37.9993 37.9998ZM36.3327 29.6665H43.416L39.666 24.6665H36.3327V29.6665Z" fill="white"/>
</svg>
