<svg width="17" height="17" viewBox="0 0 17 17" fill="none" xmlns="http://www.w3.org/2000/svg">
<path d="M5.6984 13.3682H11.0317V11.3682C11.0317 10.6348 10.7706 10.0071 10.2484 9.48483C9.72618 8.96261 9.0984 8.7015 8.36507 8.7015C7.63174 8.7015 7.00396 8.96261 6.48174 9.48483C5.95952 10.0071 5.6984 10.6348 5.6984 11.3682V13.3682ZM8.36507 7.36816C9.0984 7.36816 9.72618 7.10705 10.2484 6.58483C10.7706 6.06261 11.0317 5.43483 11.0317 4.7015V2.7015H5.6984V4.7015C5.6984 5.43483 5.95952 6.06261 6.48174 6.58483C7.00396 7.10705 7.63174 7.36816 8.36507 7.36816ZM3.03174 14.7015V13.3682H4.36507V11.3682C4.36507 10.6904 4.5234 10.0543 4.84007 9.45983C5.15674 8.86539 5.5984 8.39039 6.16507 8.03483C5.5984 7.67928 5.15674 7.20428 4.84007 6.60983C4.5234 6.01539 4.36507 5.37928 4.36507 4.7015V2.7015H3.03174V1.36816H13.6984V2.7015H12.3651V4.7015C12.3651 5.37928 12.2067 6.01539 11.8901 6.60983C11.5734 7.20428 11.1317 7.67928 10.5651 8.03483C11.1317 8.39039 11.5734 8.86539 11.8901 9.45983C12.2067 10.0543 12.3651 10.6904 12.3651 11.3682V13.3682H13.6984V14.7015H3.03174Z" fill="#3399FF"/>
</svg>
