<svg width="60" height="60" viewBox="0 0 60 60" fill="none" xmlns="http://www.w3.org/2000/svg">
<path d="M46.6438 14.5431C42.0232 9.89641 34.3974 10.1274 29.9981 14.9575C25.5985 10.1276 17.9731 9.89632 13.3525 14.5432C8.75766 19.119 8.91419 26.6541 13.6484 31.0705C11.2264 33.3838 12.6139 37.5405 15.9106 37.9458C15.7131 40.2032 17.6345 42.2733 19.9072 42.2349C20.0465 44.7199 22.5407 46.4988 24.932 45.842C25.7165 48.8027 29.4879 49.8143 31.6515 47.6353C32.8803 46.4139 33.8575 45.6436 33.9198 43.7937C35.9503 43.7371 37.707 41.9564 37.738 39.9272C39.7879 39.8956 41.5739 38.109 41.6055 36.0596C43.7321 36.0273 45.576 34.1079 45.477 31.9412L46.6436 30.7746C51.1188 26.2995 51.1188 19.0181 46.6438 14.5431ZM15.4075 32.9384L16.5033 31.8426C16.7865 31.5594 17.1584 31.4178 17.5305 31.4178C18.8061 31.4093 19.472 32.9865 18.5574 33.8967L17.4616 34.9925C16.0432 36.2983 14.1015 34.3574 15.4075 32.9384ZM18.463 38.2198C18.463 37.8318 18.6141 37.467 18.8884 37.1927L19.9848 36.0964C20.2591 35.8224 20.6236 35.6715 21.0113 35.6715C22.2978 35.6693 22.9499 37.2428 22.0383 38.1511L21.0715 39.118C20.7759 39.4529 20.3699 39.6795 19.9154 39.6723C19.1348 39.6884 18.4468 39.0006 18.463 38.2198ZM22.8849 42.9855C22.3215 42.4448 22.3215 41.4721 22.8849 40.9314L23.8518 39.9645C24.4155 39.2953 25.4051 39.2082 26.0349 39.8356C26.6012 40.4019 26.6012 41.3232 26.0349 41.8897L24.939 42.9855C24.3728 43.5521 23.4513 43.552 22.8849 42.9855ZM30.9339 44.7261L29.8381 45.8219C29.5638 46.0962 29.199 46.2473 28.811 46.2473C28.423 46.2473 28.0582 46.0962 27.7839 45.8219C27.2205 45.2812 27.2203 44.3084 27.784 43.7678L28.8797 42.672C29.446 42.1056 30.3675 42.1056 30.9338 42.6719C31.4973 43.2126 31.4974 44.1854 30.9339 44.7261ZM42.4884 33.0749C41.9477 33.6384 40.9749 33.6384 40.4343 33.0749L34.7273 27.368L32.9139 29.1814L38.6208 34.8884C39.1871 35.4547 39.1871 36.3761 38.6208 36.9425C38.0545 37.509 37.1331 37.5088 36.5667 36.9425L30.9565 31.3323L30.8598 31.2355L29.0463 33.049L29.1431 33.1458L34.7532 38.7559C35.3196 39.3223 35.3196 40.2438 34.7532 40.8101C34.1869 41.3765 33.2654 41.3765 32.6991 40.8101L32.6979 40.8112C31.6559 39.8038 30.1996 39.4722 28.8843 39.8162C28.4656 38.1052 26.7457 36.8099 25.0161 36.8476C24.9322 35.006 23.3753 33.3424 21.5354 33.1436C21.7782 29.984 18.3081 27.8081 15.5695 29.3645C11.7556 25.9577 11.5206 19.977 15.1661 16.3566C18.7906 12.7067 24.7794 12.9485 28.1848 16.7709L25.0144 19.9414L27.5549 22.4818C29.5063 24.4334 32.5135 24.7019 34.7556 23.2876L42.4886 31.0208C43.0547 31.5871 43.0547 32.5085 42.4884 33.0749ZM44.8303 28.9611L44.4396 29.3518C44.395 29.3027 44.3491 29.2545 44.3019 29.2073L34.8563 19.7617L33.9496 20.6683C32.6866 21.9313 30.6314 21.9315 29.3682 20.6683L28.6412 19.9414L32.226 16.3566C40.9339 8.34181 52.8434 20.2589 44.8303 28.9611Z" fill="white"/>
</svg>
