<svg width="60" height="60" viewBox="0 0 60 60" fill="none" xmlns="http://www.w3.org/2000/svg">
<path d="M45.0146 20.038C45.0144 20.038 45.0144 20.038 45.0142 20.038C44.3881 19.0511 43.5523 18.2092 42.5596 17.5747C42.3529 17.4425 42.1405 17.3215 41.9239 17.2097C42.7628 16.3116 43.2777 15.1073 43.2777 13.7843C43.2777 11.0142 41.0241 8.76074 38.2541 8.76074C35.4842 8.76074 33.2306 11.0142 33.2306 13.7842C33.2306 15.1053 33.744 16.3081 34.5806 17.2058C33.7007 17.6598 32.907 18.2777 32.2421 19.0367C31.5667 18.6982 30.8055 18.5066 29.9999 18.5066C29.1943 18.5066 28.4332 18.6982 27.7577 19.0367C27.0928 18.2777 26.2991 17.6597 25.4192 17.2058C26.2559 16.3081 26.7692 15.1053 26.7692 13.7842C26.7694 11.0142 24.5158 8.76074 21.7459 8.76074C18.9759 8.76074 16.7223 11.0142 16.7223 13.7842C16.7223 15.1072 17.2372 16.3115 18.0761 17.2096C17.8595 17.3215 17.6471 17.4425 17.4404 17.5746C16.4476 18.2092 15.6119 19.051 14.9858 20.0379C14.9856 20.0379 14.9856 20.0379 14.9854 20.0379C12.9257 20.038 11.25 21.7137 11.25 23.7734V36.6434L18.2713 46.6537V51.2386H41.7287V46.6537L48.75 36.6434V23.7734C48.75 21.7137 47.0743 20.038 45.0146 20.038ZM35.7196 13.7842C35.7196 12.3867 36.8566 11.2497 38.2541 11.2497C39.6517 11.2497 40.7886 12.3867 40.7886 13.7842C40.7886 15.1818 39.6517 16.3188 38.2541 16.3188C36.8566 16.3188 35.7196 15.1818 35.7196 13.7842ZM38.2541 18.8078C39.9884 18.8078 41.5708 19.5971 42.6019 20.925C41.7936 21.6107 41.2792 22.6329 41.2792 23.7734V28.5331C39.9648 28.0703 38.4409 28.3634 37.3914 29.4129L36.8588 29.9454C36.3285 29.0671 35.6313 28.2875 34.8081 27.6685C34.4462 27.3964 34.0661 27.1584 33.6714 26.9538C34.5093 26.0559 35.0235 24.8522 35.0235 23.5301C35.0235 22.4665 34.6903 21.4797 34.1242 20.6667C35.1626 19.4896 36.6514 18.8078 38.2541 18.8078ZM30 36.8043L24.9771 31.7813C25.8624 29.8248 27.7999 28.5536 30 28.5536C32.2001 28.5536 34.1376 29.8248 35.0229 31.7813L30 36.8043ZM32.5346 23.5301C32.5346 24.9276 31.3975 26.0647 30 26.0647C28.6025 26.0647 27.4654 24.9276 27.4654 23.5301C27.4654 22.1326 28.6025 20.9955 30 20.9955C31.3975 20.9955 32.5346 22.1326 32.5346 23.5301ZM19.2113 13.7842C19.2113 12.3867 20.3483 11.2497 21.7458 11.2497C23.1433 11.2497 24.2803 12.3867 24.2803 13.7842C24.2803 15.1818 23.1434 16.3188 21.7459 16.3188C20.3483 16.3188 19.2113 15.1818 19.2113 13.7842ZM21.7459 18.8078C23.3486 18.8078 24.8374 19.4896 25.8759 20.6667C25.3098 21.4797 24.9766 22.4665 24.9766 23.5301C24.9766 24.8522 25.4908 26.0559 26.3287 26.9538C25.934 27.1583 25.5538 27.3964 25.192 27.6685C24.3687 28.2875 23.6716 29.067 23.1412 29.9454L22.6087 29.4129C21.5593 28.3635 20.0354 28.07 18.7209 28.5332V23.7734C18.7209 22.6329 18.2065 21.6107 17.3982 20.925C18.4291 19.5971 20.0116 18.8078 21.7459 18.8078ZM28.7555 48.7497H20.7602V45.8678L13.7389 35.8575V23.7734C13.7389 23.0861 14.2981 22.5269 14.9854 22.5269C15.6727 22.5269 16.2319 23.0861 16.2319 23.7734V32.0523H16.2336C16.2332 33.0095 16.5972 33.9667 17.3259 34.6954L22.3493 39.7188L24.1093 37.9589L19.0858 32.9355C18.5998 32.4495 18.5998 31.6586 19.0858 31.1726C19.5718 30.6868 20.3626 30.6866 20.8487 31.1726L28.7555 39.0796V48.7497ZM46.2611 35.8575L39.2398 45.8677V48.7497H31.2445V39.0796L39.1513 31.1726C39.6372 30.6868 40.4282 30.6866 40.9141 31.1726C41.4001 31.6586 41.4001 32.4495 40.9141 32.9355L35.8907 37.9589L37.6506 39.7188L42.6741 34.6954C43.4027 33.9667 43.7668 33.0095 43.7664 32.0523H43.7681V23.7734C43.7681 23.0861 44.3273 22.5269 45.0146 22.5269C45.7019 22.5269 46.2611 23.0861 46.2611 23.7734V35.8575Z" fill="white"/>
</svg>
