<svg width="60" height="60" viewBox="0 0 60 60" fill="none" xmlns="http://www.w3.org/2000/svg">
<path d="M21.6378 41.9498L21.3724 43.1002L22.3833 42.4904L29.9983 37.8972L37.6143 42.5514L38.6277 43.1707L38.3624 42.0131L36.3671 33.3062L43.0771 27.5029L43.9693 26.7313L42.7944 26.6267L33.9675 25.8408L30.46 17.6161L30.0017 16.5417L29.5406 17.6149L26.0334 25.7782L17.2057 26.5642L16.0391 26.6681L16.921 27.4388L23.633 33.3042L21.6378 41.9498ZM30.258 42.759L30 42.6035L29.742 42.759L19.367 49.009L19.367 49.0088L19.3566 49.0154C18.9824 49.2536 18.611 49.3458 18.2291 49.314C17.82 49.2799 17.4761 49.1463 17.182 48.9176C16.8698 48.6747 16.627 48.3722 16.4515 48.0035C16.2987 47.6828 16.2587 47.311 16.3622 46.8624C16.3622 46.8624 16.3622 46.8623 16.3622 46.8622L19.112 35.0506L19.1805 34.7564L18.9519 34.5589L9.76841 26.6249C9.42033 26.3105 9.2234 25.9735 9.14488 25.6123C9.06065 25.2249 9.08572 24.8522 9.21993 24.4831C9.36077 24.0958 9.56566 23.7942 9.82929 23.5635C10.0673 23.3553 10.4213 23.1965 10.9327 23.1216L23.0437 22.0603L23.3438 22.034L23.4608 21.7564L28.1483 10.6314L28.1491 10.6296C28.3183 10.2234 28.5702 9.93734 28.9044 9.74638C29.274 9.53514 29.6372 9.43726 30 9.43726C30.3629 9.43726 30.7261 9.53514 31.0957 9.74638C31.4299 9.93734 31.6818 10.2234 31.851 10.6296L31.8518 10.6314L36.5393 21.7564L36.6563 22.034L36.9564 22.0603L49.0674 23.1216C49.5788 23.1965 49.9328 23.3553 50.1708 23.5635C50.4344 23.7942 50.6393 24.0958 50.7801 24.4831C50.9144 24.8522 50.9394 25.2249 50.8552 25.6123C50.7767 25.9735 50.5798 26.3105 50.2317 26.6248L41.0482 34.5589L40.8196 34.7564L40.8881 35.0506L43.6378 46.8622C43.6379 46.8623 43.6379 46.8625 43.638 46.8627C43.7413 47.3111 43.7013 47.6828 43.5486 48.0035C43.3731 48.3722 43.1303 48.6747 42.8181 48.9176C42.524 49.1463 42.1801 49.2799 41.771 49.314C41.3891 49.3458 41.0177 49.2536 40.6435 49.0154L40.6436 49.0153L40.633 49.009L30.258 42.759Z" fill="white" stroke="#6A976E"/>
</svg>
