<svg width="25" height="25" viewBox="0 0 25 25" fill="none" xmlns="http://www.w3.org/2000/svg">
<path d="M6.5 20.623C5.66667 20.623 4.95833 20.3314 4.375 19.748C3.79167 19.1647 3.5 18.4564 3.5 17.623H2.5C2.21667 17.623 1.97917 17.5272 1.7875 17.3355C1.59583 17.1439 1.5 16.9064 1.5 16.623V6.62305C1.5 6.07305 1.69583 5.60221 2.0875 5.21055C2.47917 4.81888 2.95 4.62305 3.5 4.62305H15.5C16.05 4.62305 16.5208 4.81888 16.9125 5.21055C17.3042 5.60221 17.5 6.07305 17.5 6.62305V8.62305H19.5C19.8167 8.62305 20.1167 8.69388 20.4 8.83555C20.6833 8.97721 20.9167 9.17305 21.1 9.42305L23.3 12.348C23.3667 12.4314 23.4167 12.523 23.45 12.623C23.4833 12.723 23.5 12.8314 23.5 12.948V16.623C23.5 16.9064 23.4042 17.1439 23.2125 17.3355C23.0208 17.5272 22.7833 17.623 22.5 17.623H21.5C21.5 18.4564 21.2083 19.1647 20.625 19.748C20.0417 20.3314 19.3333 20.623 18.5 20.623C17.6667 20.623 16.9583 20.3314 16.375 19.748C15.7917 19.1647 15.5 18.4564 15.5 17.623H9.5C9.5 18.4564 9.20833 19.1647 8.625 19.748C8.04167 20.3314 7.33333 20.623 6.5 20.623ZM6.5 18.623C6.78333 18.623 7.02083 18.5272 7.2125 18.3355C7.40417 18.1439 7.5 17.9064 7.5 17.623C7.5 17.3397 7.40417 17.1022 7.2125 16.9105C7.02083 16.7189 6.78333 16.623 6.5 16.623C6.21667 16.623 5.97917 16.7189 5.7875 16.9105C5.59583 17.1022 5.5 17.3397 5.5 17.623C5.5 17.9064 5.59583 18.1439 5.7875 18.3355C5.97917 18.5272 6.21667 18.623 6.5 18.623ZM3.5 15.623H4.3C4.58333 15.323 4.90833 15.0814 5.275 14.898C5.64167 14.7147 6.05 14.623 6.5 14.623C6.95 14.623 7.35833 14.7147 7.725 14.898C8.09167 15.0814 8.41667 15.323 8.7 15.623H15.5V6.62305H3.5V15.623ZM18.5 18.623C18.7833 18.623 19.0208 18.5272 19.2125 18.3355C19.4042 18.1439 19.5 17.9064 19.5 17.623C19.5 17.3397 19.4042 17.1022 19.2125 16.9105C19.0208 16.7189 18.7833 16.623 18.5 16.623C18.2167 16.623 17.9792 16.7189 17.7875 16.9105C17.5958 17.1022 17.5 17.3397 17.5 17.623C17.5 17.9064 17.5958 18.1439 17.7875 18.3355C17.9792 18.5272 18.2167 18.623 18.5 18.623ZM17.5 13.623H21.75L19.5 10.623H17.5V13.623Z" fill="#464A48"/>
</svg>
