<svg width="25" height="25" viewBox="0 0 25 25" fill="none" xmlns="http://www.w3.org/2000/svg">
<path d="M12.3164 21.0277L10.8664 19.7277C9.18307 18.2111 7.79141 16.9027 6.69141 15.8027C5.59141 14.7027 4.71641 13.7152 4.06641 12.8402C3.41641 11.9652 2.96224 11.1611 2.70391 10.4277C2.44557 9.6944 2.31641 8.9444 2.31641 8.17773C2.31641 6.61107 2.84141 5.30273 3.89141 4.25273C4.94141 3.20273 6.24974 2.67773 7.81641 2.67773C8.68307 2.67773 9.50807 2.86107 10.2914 3.22773C11.0747 3.5944 11.7497 4.11107 12.3164 4.77773C12.8831 4.11107 13.5581 3.5944 14.3414 3.22773C15.1247 2.86107 15.9497 2.67773 16.8164 2.67773C18.3831 2.67773 19.6914 3.20273 20.7414 4.25273C21.7914 5.30273 22.3164 6.61107 22.3164 8.17773C22.3164 8.9444 22.1872 9.6944 21.9289 10.4277C21.6706 11.1611 21.2164 11.9652 20.5664 12.8402C19.9164 13.7152 19.0414 14.7027 17.9414 15.8027C16.8414 16.9027 15.4497 18.2111 13.7664 19.7277L12.3164 21.0277Z" fill="#6A976E"/>
</svg>
