<svg width="25" height="24" viewBox="0 0 25 24" fill="none" xmlns="http://www.w3.org/2000/svg">
<path d="M11.168 17H13.168V11H11.168V17ZM12.168 9C12.4513 9 12.6888 8.90417 12.8805 8.7125C13.0721 8.52083 13.168 8.28333 13.168 8C13.168 7.71667 13.0721 7.47917 12.8805 7.2875C12.6888 7.09583 12.4513 7 12.168 7C11.8846 7 11.6471 7.09583 11.4555 7.2875C11.2638 7.47917 11.168 7.71667 11.168 8C11.168 8.28333 11.2638 8.52083 11.4555 8.7125C11.6471 8.90417 11.8846 9 12.168 9ZM12.168 22C10.7846 22 9.48464 21.7375 8.26797 21.2125C7.0513 20.6875 5.99297 19.975 5.09297 19.075C4.19297 18.175 3.48047 17.1167 2.95547 15.9C2.43047 14.6833 2.16797 13.3833 2.16797 12C2.16797 10.6167 2.43047 9.31667 2.95547 8.1C3.48047 6.88333 4.19297 5.825 5.09297 4.925C5.99297 4.025 7.0513 3.3125 8.26797 2.7875C9.48464 2.2625 10.7846 2 12.168 2C13.5513 2 14.8513 2.2625 16.068 2.7875C17.2846 3.3125 18.343 4.025 19.243 4.925C20.143 5.825 20.8555 6.88333 21.3805 8.1C21.9055 9.31667 22.168 10.6167 22.168 12C22.168 13.3833 21.9055 14.6833 21.3805 15.9C20.8555 17.1167 20.143 18.175 19.243 19.075C18.343 19.975 17.2846 20.6875 16.068 21.2125C14.8513 21.7375 13.5513 22 12.168 22ZM12.168 20C14.4013 20 16.293 19.225 17.843 17.675C19.393 16.125 20.168 14.2333 20.168 12C20.168 9.76667 19.393 7.875 17.843 6.325C16.293 4.775 14.4013 4 12.168 4C9.93464 4 8.04297 4.775 6.49297 6.325C4.94297 7.875 4.16797 9.76667 4.16797 12C4.16797 14.2333 4.94297 16.125 6.49297 17.675C8.04297 19.225 9.93464 20 12.168 20Z" fill="#464A48"/>
</svg>
