<svg width="25" height="25" viewBox="0 0 25 25" fill="none" xmlns="http://www.w3.org/2000/svg">
<path d="M11.0605 17.9482H13.0605V11.9482H11.0605V17.9482ZM12.0605 9.94824C12.3439 9.94824 12.5814 9.85241 12.773 9.66074C12.9647 9.46908 13.0605 9.23158 13.0605 8.94824C13.0605 8.66491 12.9647 8.42741 12.773 8.23574C12.5814 8.04408 12.3439 7.94824 12.0605 7.94824C11.7772 7.94824 11.5397 8.04408 11.348 8.23574C11.1564 8.42741 11.0605 8.66491 11.0605 8.94824C11.0605 9.23158 11.1564 9.46908 11.348 9.66074C11.5397 9.85241 11.7772 9.94824 12.0605 9.94824ZM12.0605 22.9482C10.6772 22.9482 9.37721 22.6857 8.16055 22.1607C6.94388 21.6357 5.88555 20.9232 4.98555 20.0232C4.08555 19.1232 3.37305 18.0649 2.84805 16.8482C2.32305 15.6316 2.06055 14.3316 2.06055 12.9482C2.06055 11.5649 2.32305 10.2649 2.84805 9.04824C3.37305 7.83158 4.08555 6.77324 4.98555 5.87324C5.88555 4.97324 6.94388 4.26074 8.16055 3.73574C9.37721 3.21074 10.6772 2.94824 12.0605 2.94824C13.4439 2.94824 14.7439 3.21074 15.9605 3.73574C17.1772 4.26074 18.2355 4.97324 19.1355 5.87324C20.0355 6.77324 20.748 7.83158 21.273 9.04824C21.798 10.2649 22.0605 11.5649 22.0605 12.9482C22.0605 14.3316 21.798 15.6316 21.273 16.8482C20.748 18.0649 20.0355 19.1232 19.1355 20.0232C18.2355 20.9232 17.1772 21.6357 15.9605 22.1607C14.7439 22.6857 13.4439 22.9482 12.0605 22.9482ZM12.0605 20.9482C14.2939 20.9482 16.1855 20.1732 17.7355 18.6232C19.2855 17.0732 20.0605 15.1816 20.0605 12.9482C20.0605 10.7149 19.2855 8.82324 17.7355 7.27324C16.1855 5.72324 14.2939 4.94824 12.0605 4.94824C9.82721 4.94824 7.93555 5.72324 6.38555 7.27324C4.83555 8.82324 4.06055 10.7149 4.06055 12.9482C4.06055 15.1816 4.83555 17.0732 6.38555 18.6232C7.93555 20.1732 9.82721 20.9482 12.0605 20.9482Z" fill="#6B6C6B"/>
</svg>
