<svg width="17" height="17" viewBox="0 0 17 17" fill="none" xmlns="http://www.w3.org/2000/svg">
<g clip-path="url(#clip0_2573_6289)">
<path d="M8.22506 5.96566H8.2493C8.38036 5.96566 8.47354 6.05884 8.47354 6.1899C8.47354 6.31165 8.36556 6.41414 8.2493 6.41414H8.22506C8.094 6.41414 8.00081 6.32096 8.00081 6.1899C8.00081 6.06815 8.10879 5.96566 8.22506 5.96566Z" fill="#F23030" stroke="#F23030" stroke-width="0.666667"/>
<path d="M8.02523 8.10518C8.02523 7.98344 8.13321 7.88094 8.24947 7.88094C8.39027 7.88094 8.47371 7.98372 8.47371 8.08094V11.8385C8.47371 11.9603 8.36573 12.0628 8.24947 12.0628C8.12772 12.0628 8.02523 11.9548 8.02523 11.8385V8.10518Z" fill="#F23030" stroke="#F23030" stroke-width="0.666667"/>
<path d="M8.24926 1.43848C4.20078 1.43848 0.903809 4.7112 0.903809 8.75969C0.903809 12.8082 4.20078 16.1051 8.24926 16.1051C12.2977 16.1051 15.5705 12.8082 15.5705 8.75969C15.5705 4.7112 12.2977 1.43848 8.24926 1.43848ZM8.24926 15.0142C4.80684 15.0142 1.99472 12.2021 1.99472 8.75969C1.99472 5.31726 4.80684 2.50514 8.24926 2.50514C11.6917 2.50514 14.4796 5.31726 14.4796 8.75969C14.4796 12.2021 11.6917 15.0142 8.24926 15.0142Z" fill="#F23030"/>
</g>
<defs>
<clipPath id="clip0_2573_6289">
<rect width="16" height="16" fill="white" transform="translate(0.273438 0.759766)"/>
</clipPath>
</defs>
</svg>
