<svg width="25" height="25" viewBox="0 0 25 25" fill="none" xmlns="http://www.w3.org/2000/svg">
<g clip-path="url(#clip0_2573_6465)">
<path d="M10.034 12.2602C10.034 10.7193 11.2723 9.48104 12.8132 9.48104C14.3541 9.48104 15.5923 10.7193 15.5923 12.2602C15.5923 13.8011 14.3541 15.0394 12.8132 15.0394C11.2723 15.0394 10.034 13.8011 10.034 12.2602ZM11.0549 12.2602C11.0549 13.2318 11.8416 14.0185 12.8132 14.0185C13.7848 14.0185 14.5715 13.2318 14.5715 12.2602C14.5715 11.2886 13.7848 10.5019 12.8132 10.5019C11.8416 10.5019 11.0549 11.2886 11.0549 12.2602Z" fill="#6B6C6B" stroke="#6B6C6B" stroke-width="0.666667"/>
<path d="M22.6504 12.8228L22.6631 12.8041L22.6731 12.784C22.8326 12.4651 22.8326 12.0547 22.6731 11.7358L22.6631 11.7157L22.6504 11.6971C21.2656 9.66733 19.8641 8.20993 18.2703 7.26245C16.672 6.31224 14.9044 5.88908 12.8125 5.88908C10.7206 5.88908 8.95296 6.31224 7.35466 7.26245C5.76095 8.20993 4.35941 9.66733 2.97465 11.6971L2.97463 11.697L2.97265 11.7C2.74801 12.037 2.74801 12.4828 2.97265 12.8198L2.97263 12.8198L2.97465 12.8228C4.35941 14.8525 5.76095 16.3099 7.35466 17.2574C8.95296 18.2076 10.7206 18.6307 12.8125 18.6307C14.9044 18.6307 16.672 18.2076 18.2703 17.2574C19.8641 16.3099 21.2656 14.8525 22.6504 12.8228ZM12.8125 4.86825C15.6705 4.86825 17.8072 5.65427 19.4899 6.81986C21.1786 7.98969 22.426 9.55284 23.4855 11.1328C23.933 11.8045 23.9383 12.672 23.4838 13.3895C22.4243 14.9504 21.1773 16.5124 19.4894 17.6862C17.8063 18.8567 15.6696 19.6516 12.8125 19.6516C9.95539 19.6516 7.8187 18.8567 6.13562 17.6862C4.4466 16.5117 3.19914 14.9484 2.13913 13.3864C1.68956 12.7111 1.68974 11.8077 2.13965 11.1326C3.19914 9.55272 4.44645 7.98964 6.13513 6.81986C7.81775 5.65427 9.95451 4.86825 12.8125 4.86825Z" fill="#6B6C6B" stroke="#6B6C6B" stroke-width="0.666667"/>
</g>
<defs>
<clipPath id="clip0_2573_6465">
<rect width="24" height="24" fill="white" transform="translate(0.8125 0.259766)"/>
</clipPath>
</defs>
</svg>
