<svg width="21" height="21" viewBox="0 0 21 21" fill="none" xmlns="http://www.w3.org/2000/svg">
<path d="M9.77555 14.6755L15.6506 8.80046L14.4839 7.63379L9.77555 12.3421L7.40055 9.96712L6.23389 11.1338L9.77555 14.6755ZM10.9422 19.1755C9.78944 19.1755 8.70611 18.9567 7.69222 18.5192C6.67833 18.0817 5.79639 17.488 5.04639 16.738C4.29639 15.988 3.70264 15.106 3.26514 14.0921C2.82764 13.0782 2.60889 11.9949 2.60889 10.8421C2.60889 9.68935 2.82764 8.60601 3.26514 7.59212C3.70264 6.57823 4.29639 5.69629 5.04639 4.94629C5.79639 4.19629 6.67833 3.60254 7.69222 3.16504C8.70611 2.72754 9.78944 2.50879 10.9422 2.50879C12.095 2.50879 13.1783 2.72754 14.1922 3.16504C15.2061 3.60254 16.0881 4.19629 16.8381 4.94629C17.5881 5.69629 18.1818 6.57823 18.6193 7.59212C19.0568 8.60601 19.2756 9.68935 19.2756 10.8421C19.2756 11.9949 19.0568 13.0782 18.6193 14.0921C18.1818 15.106 17.5881 15.988 16.8381 16.738C16.0881 17.488 15.2061 18.0817 14.1922 18.5192C13.1783 18.9567 12.095 19.1755 10.9422 19.1755ZM10.9422 17.5088C12.8033 17.5088 14.3797 16.863 15.6714 15.5713C16.9631 14.2796 17.6089 12.7032 17.6089 10.8421C17.6089 8.98101 16.9631 7.40462 15.6714 6.11296C14.3797 4.82129 12.8033 4.17546 10.9422 4.17546C9.08111 4.17546 7.50472 4.82129 6.21305 6.11296C4.92139 7.40462 4.27555 8.98101 4.27555 10.8421C4.27555 12.7032 4.92139 14.2796 6.21305 15.5713C7.50472 16.863 9.08111 17.5088 10.9422 17.5088Z" fill="#6A976E"/>
</svg>
