<svg width="25" height="25" viewBox="0 0 25 25" fill="none" xmlns="http://www.w3.org/2000/svg">
<path d="M16.3555 11.5244C16.6388 11.5244 16.8763 11.4286 17.068 11.2369C17.2596 11.0452 17.3555 10.8077 17.3555 10.5244C17.3555 10.2411 17.2596 10.0036 17.068 9.81191C16.8763 9.62025 16.6388 9.52441 16.3555 9.52441C16.0721 9.52441 15.8346 9.62025 15.643 9.81191C15.4513 10.0036 15.3555 10.2411 15.3555 10.5244C15.3555 10.8077 15.4513 11.0452 15.643 11.2369C15.8346 11.4286 16.0721 11.5244 16.3555 11.5244ZM8.35547 9.52441H13.3555V7.52441H8.35547V9.52441ZM4.85547 21.5244C4.2888 19.6244 3.73047 17.7286 3.18047 15.8369C2.63047 13.9452 2.35547 12.0077 2.35547 10.0244C2.35547 8.49108 2.8888 7.19108 3.95547 6.12441C5.02214 5.05775 6.32214 4.52441 7.85547 4.52441H12.8555C13.3388 3.89108 13.9263 3.39941 14.618 3.04941C15.3096 2.69941 16.0555 2.52441 16.8555 2.52441C17.2721 2.52441 17.6263 2.67025 17.918 2.96191C18.2096 3.25358 18.3555 3.60775 18.3555 4.02441C18.3555 4.12441 18.343 4.22441 18.318 4.32441C18.293 4.42441 18.2638 4.51608 18.2305 4.59941C18.1638 4.78275 18.1013 4.97025 18.043 5.16191C17.9846 5.35358 17.9388 5.54941 17.9055 5.74941L20.1805 8.02441H22.3555V14.9994L19.5305 15.9244L17.8555 21.5244H12.3555V19.5244H10.3555V21.5244H4.85547ZM6.35547 19.5244H8.35547V17.5244H14.3555V19.5244H16.3555L17.9055 14.3744L20.3555 13.5494V10.0244H19.3555L15.8555 6.52441C15.8555 6.19108 15.8763 5.87025 15.918 5.56191C15.9596 5.25358 16.0221 4.94108 16.1055 4.62441C15.6221 4.75775 15.1971 4.98691 14.8305 5.31191C14.4638 5.63691 14.1971 6.04108 14.0305 6.52441H7.85547C6.8888 6.52441 6.0638 6.86608 5.38047 7.54941C4.69714 8.23275 4.35547 9.05775 4.35547 10.0244C4.35547 11.6577 4.58047 13.2536 5.03047 14.8119C5.48047 16.3702 5.92214 17.9411 6.35547 19.5244Z" fill="#6A976E"/>
</svg>
