<svg width="32" height="33" viewBox="0 0 32 33" fill="none" xmlns="http://www.w3.org/2000/svg">
<path d="M7.76471 12.0979V24.7902C7.76471 24.8959 7.79863 24.9827 7.86647 25.0505C7.93431 25.1184 8.02108 25.1523 8.12676 25.1523H23.8732C23.9789 25.1523 24.0657 25.1184 24.1335 25.0505C24.2014 24.9827 24.2353 24.8959 24.2353 24.7902V12.0979H20.1176V19.0664C20.1176 19.4721 19.9502 19.7783 19.6153 19.9849C19.2804 20.1914 18.9358 20.2041 18.5815 20.0232L16 18.7382L13.4185 20.0232C13.0642 20.2041 12.7196 20.1914 12.3847 19.9849C12.0498 19.7783 11.8824 19.4721 11.8824 19.0664V12.0979H7.76471ZM8.12676 26.917C7.5401 26.917 7.03892 26.7092 6.62324 26.2938C6.20775 25.8781 6 25.3769 6 24.7902V11.0414C6 10.7896 6.04039 10.5494 6.12118 10.3208C6.20176 10.0924 6.32275 9.8816 6.48412 9.68846L8.13588 7.69082C8.32882 7.43885 8.5701 7.24689 8.85971 7.11493C9.14931 6.98297 9.45549 6.91699 9.77823 6.91699H22.1991C22.5219 6.91699 22.8299 6.98297 23.1232 7.11493C23.4166 7.24689 23.6598 7.43885 23.8529 7.69082L25.5159 9.71111C25.6773 9.90425 25.7982 10.1169 25.8788 10.3491C25.9596 10.5814 26 10.8236 26 11.0755V24.7902C26 25.3769 25.7923 25.8781 25.3768 26.2938C24.9611 26.7092 24.4599 26.917 23.8732 26.917H8.12676ZM8.22412 10.3335H23.7647L22.4818 8.80611C22.4441 8.76846 22.4008 8.73827 22.3518 8.71552C22.3027 8.69297 22.2519 8.6817 22.1991 8.6817H9.78971C9.73696 8.6817 9.68598 8.69297 9.63676 8.71552C9.58774 8.73827 9.54441 8.76846 9.50677 8.80611L8.22412 10.3335ZM13.6471 12.0979V17.9238L16 16.7473L18.3529 17.9238V12.0979H13.6471Z" fill="#323735"/>
</svg>
