<svg width="16" height="16" viewBox="0 0 16 16" fill="none" xmlns="http://www.w3.org/2000/svg">
<path d="M5.9875 10.6666V10.6791H6H12H12.0125V10.6666V2.66659V2.65409H12H6H5.9875V2.66659V10.6666ZM3.33333 13.3458H10.6542V14.6541H3.33333C2.97001 14.6541 2.65929 14.5249 2.40051 14.2661C2.14172 14.0073 2.0125 13.6966 2.0125 13.3333V4.01242H3.32083V13.3333V13.3458H3.33333ZM6 11.9874C5.63667 11.9874 5.32596 11.8582 5.06717 11.5994C4.80839 11.3406 4.67917 11.0299 4.67917 10.6666V2.66659C4.67917 2.30326 4.80839 1.99254 5.06717 1.73376C5.32596 1.47497 5.63667 1.34575 6 1.34575H12C12.3633 1.34575 12.674 1.47497 12.9328 1.73376C13.1916 1.99254 13.3208 2.30326 13.3208 2.66659V10.6666C13.3208 11.0299 13.1916 11.3406 12.9328 11.5994C12.674 11.8582 12.3633 11.9874 12 11.9874H6Z" fill="#6B6C6B" stroke="#6B6C6B" stroke-width="0.025"/>
</svg>
