<svg width="32" height="33" viewBox="0 0 32 33" fill="none" xmlns="http://www.w3.org/2000/svg">
<path d="M16 16.0228C14.7167 16.0228 13.6181 15.5659 12.7043 14.6521C11.7903 13.7381 11.3333 12.6395 11.3333 11.3561C11.3333 10.0728 11.7903 8.97423 12.7043 8.06045C13.6181 7.14645 14.7167 6.68945 16 6.68945C17.2833 6.68945 18.3819 7.14645 19.2957 8.06045C20.2097 8.97423 20.6667 10.0728 20.6667 11.3561C20.6667 12.6395 20.2097 13.7381 19.2957 14.6521C18.3819 15.5659 17.2833 16.0228 16 16.0228ZM6 24.1511V23.2125C6 22.5596 6.17733 21.9549 6.532 21.3985C6.88667 20.842 7.36067 20.4142 7.954 20.1151C9.27178 19.4691 10.6012 18.9846 11.9423 18.6615C13.2834 18.3383 14.636 18.1768 16 18.1768C17.364 18.1768 18.7166 18.3383 20.0577 18.6615C21.3988 18.9846 22.7282 19.4691 24.046 20.1151C24.6393 20.4142 25.1133 20.842 25.468 21.3985C25.8227 21.9549 26 22.5596 26 23.2125V24.1511C26 24.7133 25.803 25.1916 25.409 25.5858C25.015 25.9798 24.5368 26.1768 23.9743 26.1768H8.02567C7.46322 26.1768 6.985 25.9798 6.591 25.5858C6.197 25.1916 6 24.7133 6 24.1511ZM8 24.1768H24V23.2125C24 22.9425 23.9218 22.6925 23.7653 22.4625C23.6089 22.2327 23.3966 22.0451 23.1283 21.8998C21.9794 21.334 20.8081 20.9053 19.6143 20.6138C18.4203 20.3225 17.2156 20.1768 16 20.1768C14.7844 20.1768 13.5797 20.3225 12.3857 20.6138C11.1919 20.9053 10.0206 21.334 8.87167 21.8998C8.60344 22.0451 8.39111 22.2327 8.23467 22.4625C8.07822 22.6925 8 22.9425 8 23.2125V24.1768ZM16 14.0228C16.7333 14.0228 17.3611 13.7617 17.8833 13.2395C18.4056 12.7172 18.6667 12.0895 18.6667 11.3561C18.6667 10.6228 18.4056 9.99501 17.8833 9.47279C17.3611 8.95056 16.7333 8.68945 16 8.68945C15.2667 8.68945 14.6389 8.95056 14.1167 9.47279C13.5944 9.99501 13.3333 10.6228 13.3333 11.3561C13.3333 12.0895 13.5944 12.7172 14.1167 13.2395C14.6389 13.7617 15.2667 14.0228 16 14.0228Z" fill="#323735"/>
</svg>
