<svg width="24" height="24" viewBox="0 0 24 24" fill="none" xmlns="http://www.w3.org/2000/svg">
<path d="M18.9126 19.9126C18.9786 19.8467 19.0125 19.7732 19.0125 19.6923V10.3078V10.2953H19H5H4.9875V10.3078V19.6923C4.9875 19.7732 5.02135 19.8467 5.08741 19.9126L5.30775 20.0125H18.6923C18.7731 20.0125 18.8467 19.9787 18.9126 19.9126ZM18.9126 19.9126L18.9038 19.9038L18.9126 19.9126C18.9126 19.9126 18.9126 19.9126 18.9126 19.9126ZM4.9875 8.82027V8.80777V6.30777C4.9875 6.22687 5.02135 6.15333 5.0874 6.08744C5.08741 6.08743 5.08742 6.08742 5.08742 6.08741M4.9875 8.82027L18.6923 6.00002H5.30775C5.23075 6.00002 5.16025 6.0321 5.09625 6.09626L5.08742 6.08741M4.9875 8.82027H5H19H19.0125V8.80777V6.30777C19.0125 6.22686 18.9786 6.15331 18.9126 6.08741M4.9875 8.82027L18.9126 6.08741M5.08742 6.08741C5.15331 6.02136 5.22685 5.98752 5.30775 5.98752H18.6923C18.7731 5.98752 18.8467 6.02136 18.9126 6.08741M5.08742 6.08741H18.9126M6.69225 4.51252H6.70475V4.50002V2.39727H8.21825V4.50002V4.51252H8.23075H15.8077H15.8202V4.50002V2.39727H17.2952V4.50002V4.51252H17.3077H18.6923C19.1942 4.51252 19.6186 4.68625 19.9662 5.03385C20.3138 5.38146 20.4875 5.80584 20.4875 6.30777V19.6923C20.4875 20.1942 20.3138 20.6186 19.9662 20.9662C19.6186 21.3138 19.1942 21.4875 18.6923 21.4875H5.30775C4.80582 21.4875 4.38144 21.3138 4.03384 20.9662C3.68624 20.6186 3.5125 20.1942 3.5125 19.6923V6.30777C3.5125 5.80584 3.68624 5.38146 4.03384 5.03385C4.38144 4.68625 4.80582 4.51252 5.30775 4.51252H6.69225ZM12 14.0645C11.7585 14.0645 11.553 13.9796 11.3828 13.8094C11.2129 13.6395 11.128 13.434 11.128 13.1923C11.128 12.9507 11.2129 12.7452 11.3828 12.5751C11.553 12.4051 11.7585 12.3203 12 12.3203C12.2415 12.3203 12.447 12.4051 12.6172 12.5751C12.7871 12.7453 12.872 12.9507 12.872 13.1923C12.872 13.434 12.7871 13.6395 12.6172 13.8094C12.447 13.9796 12.2415 14.0645 12 14.0645ZM8 14.0645C7.75847 14.0645 7.55298 13.9796 7.38284 13.8094C7.21286 13.6395 7.128 13.434 7.128 13.1923C7.128 12.9507 7.21286 12.7452 7.38284 12.5751C7.55299 12.4051 7.75847 12.3203 8 12.3203C8.24154 12.3203 8.44702 12.4051 8.61717 12.5751C8.78714 12.7453 8.872 12.9507 8.872 13.1923C8.872 13.434 8.78714 13.6395 8.61716 13.8094C8.44702 13.9796 8.24153 14.0645 8 14.0645ZM16 14.0645C15.7585 14.0645 15.553 13.9796 15.3828 13.8094C15.2129 13.6395 15.128 13.434 15.128 13.1923C15.128 12.9507 15.2129 12.7452 15.3828 12.5751C15.553 12.4051 15.7585 12.3203 16 12.3203C16.2415 12.3203 16.447 12.4051 16.6172 12.5751C16.7871 12.7453 16.872 12.9507 16.872 13.1923C16.872 13.434 16.7871 13.6395 16.6172 13.8094C16.447 13.9796 16.2415 14.0645 16 14.0645ZM12 17.9875C11.7585 17.9875 11.553 17.9026 11.3828 17.7324C11.2129 17.5625 11.128 17.3571 11.128 17.1155C11.128 16.8738 11.2129 16.6683 11.3828 16.4984C11.553 16.3282 11.7585 16.2433 12 16.2433C12.2415 16.2433 12.447 16.3282 12.6172 16.4984C12.7871 16.6683 12.872 16.8738 12.872 17.1155C12.872 17.3571 12.7871 17.5625 12.6172 17.7324C12.447 17.9026 12.2415 17.9875 12 17.9875ZM8 17.9875C7.75847 17.9875 7.55298 17.9026 7.38284 17.7324C7.21286 17.5625 7.128 17.3571 7.128 17.1155C7.128 16.8738 7.21286 16.6683 7.38284 16.4984C7.55298 16.3282 7.75847 16.2433 8 16.2433C8.24153 16.2433 8.44702 16.3282 8.61716 16.4984C8.78714 16.6683 8.872 16.8738 8.872 17.1155C8.872 17.3571 8.78714 17.5625 8.61716 17.7324C8.44702 17.9026 8.24153 17.9875 8 17.9875ZM16 17.9875C15.7585 17.9875 15.553 17.9026 15.3828 17.7324C15.2129 17.5625 15.128 17.3571 15.128 17.1155C15.128 16.8738 15.2129 16.6683 15.3828 16.4984C15.553 16.3282 15.7585 16.2433 16 16.2433C16.2415 16.2433 16.447 16.3282 16.6172 16.4984C16.7871 16.6683 16.872 16.8738 16.872 17.1155C16.872 17.3571 16.7871 17.5625 16.6172 17.7324C16.447 17.9026 16.2415 17.9875 16 17.9875Z" fill="#6B6C6B" stroke="#6B6C6B" stroke-width="0.025"/>
</svg>
