<svg width="32" height="33" viewBox="0 0 32 33" fill="none" xmlns="http://www.w3.org/2000/svg">
<path d="M25.6853 14.1154C24.5994 12.9787 22.8327 12.9787 21.7477 14.1154L17.2815 18.7941C16.4555 19.6594 16.0004 20.8098 16.0004 22.0345V23.3444C16.0004 23.8513 16.3925 24.2611 16.8755 24.2611H18.1259C19.2941 24.2611 20.3922 23.7835 21.22 22.9182L25.6862 18.2395C26.7713 17.1028 26.7713 15.2512 25.6862 14.1145L25.6853 14.1154ZM24.448 16.9442L19.9819 21.6229C19.4857 22.1417 18.8259 22.4287 18.125 22.4287H17.7496V22.0354C17.7496 21.3112 18.0296 20.6036 18.5179 20.0912L22.9841 15.4125C23.3875 14.9899 24.0438 14.9899 24.4463 15.4125C24.8497 15.8351 24.8497 16.5226 24.4463 16.9452L24.448 16.9442ZM19.5286 11.3141C19.6493 10.8237 20.1254 10.5239 20.5953 10.6559C20.9785 10.7586 21.346 10.9172 21.689 11.1243C22.1073 11.3773 22.2508 11.9383 22.0093 12.3765C21.8466 12.6698 21.5534 12.8348 21.2507 12.8348C21.1028 12.8348 20.9523 12.7954 20.814 12.712C20.6084 12.5873 20.387 12.4929 20.1577 12.4297C19.6896 12.3032 19.4087 11.8027 19.5295 11.3132L19.5286 11.3141ZM23.2904 25.637C22.5098 27.0496 21.0581 27.9277 19.5006 27.9277H12.5003C10.0878 27.9277 8.12511 25.8717 8.12511 23.3444V21.5111C8.12511 21.0042 8.51713 20.5944 9.00015 20.5944C9.48317 20.5944 9.87518 21.0042 9.87518 21.5111V23.3444C9.87518 24.8606 11.053 26.0944 12.5003 26.0944H19.5006C20.4351 26.0944 21.3067 25.5673 21.7748 24.7185C22.0172 24.2803 22.5527 24.1291 22.9701 24.3848C23.3892 24.6378 23.5327 25.1988 23.2904 25.637ZM17.7505 12.3444C17.7505 8.80698 15.0029 5.92773 11.6253 5.92773C8.24761 5.92773 5.5 8.80698 5.5 12.3444C5.5 15.8818 8.24761 18.7611 11.6253 18.7611C15.0029 18.7611 17.7505 15.8818 17.7505 12.3444ZM7.25007 12.3444C7.25007 9.81715 9.21278 7.76107 11.6253 7.76107C14.0377 7.76107 16.0004 9.81715 16.0004 12.3444C16.0004 14.8717 14.0377 16.9277 11.6253 16.9277C9.21278 16.9277 7.25007 14.8717 7.25007 12.3444ZM12.4828 14.4766C12.0873 14.8854 11.5623 15.0917 11.0364 15.0917C10.5105 15.0917 9.98281 14.8854 9.5803 14.4738L8.58975 13.4582C8.24411 13.1034 8.23886 12.5232 8.57663 12.162C8.91439 11.7999 9.46829 11.7944 9.81393 12.1473L10.8045 13.163C10.9305 13.2932 11.1361 13.2922 11.2612 13.163L13.2064 11.2068C13.5547 10.8576 14.1095 10.8677 14.4437 11.2334C14.7789 11.5982 14.7675 12.1785 14.4184 12.5296L12.4828 14.4766Z" fill="#323735"/>
</svg>
