<svg width="32" height="33" viewBox="0 0 32 33" fill="none" xmlns="http://www.w3.org/2000/svg">
<path fill-rule="evenodd" clip-rule="evenodd" d="M21.72 12.4678H22.0951C23.9791 12.4678 25.505 14.0022 25.505 15.8777V25.0246C25.505 26.9086 23.9791 28.4345 22.0951 28.4345H9.90486C9.78711 28.4345 9.67077 28.4285 9.5561 28.4169C7.83613 28.2424 6.495 26.7908 6.495 25.0246V15.8777C6.495 13.9937 8.02091 12.4678 9.90486 12.4678H10.2799V10.3196C10.2799 9.66301 10.3907 9.03165 10.5944 8.44321C10.5901 8.32161 10.612 8.19703 10.6636 8.07759C11.5672 5.94643 13.6472 4.56543 15.9659 4.56543C15.9773 4.56543 15.9886 4.56546 16 4.56553C16.0114 4.56546 16.0227 4.56543 16.0341 4.56543C18.3528 4.56543 20.4328 5.94643 21.3364 8.07759C21.388 8.19703 21.4099 8.32161 21.4056 8.44321C21.6093 9.03165 21.72 9.66301 21.72 10.3196V12.4678ZM16 6.2705C13.7822 6.28887 11.9849 8.09749 11.9849 10.3196V12.4678H20.0151V10.3196C20.0151 8.09749 18.2178 6.28887 16 6.2705ZM22.0951 26.7296C23.0328 26.7296 23.8001 25.9623 23.8001 25.0246V15.8777C23.8001 14.9399 23.0328 14.1727 22.0951 14.1727H9.90486C9.78765 14.1727 9.6731 14.1847 9.56238 14.2075C8.78733 14.3672 8.19993 15.0572 8.19993 15.8777V25.0246C8.19993 25.9623 8.96715 26.7296 9.90486 26.7296H22.0951ZM16.8525 21.4869C17.2616 21.2141 17.5344 20.7367 17.5344 20.2082C17.5344 19.3557 16.8439 18.6737 16 18.6737C15.1561 18.6737 14.4656 19.3557 14.4656 20.2082C14.4656 20.7367 14.7383 21.2141 15.1475 21.4869V23.5754C15.1475 24.0443 15.5311 24.4279 16 24.4279C16.4689 24.4279 16.8525 24.0443 16.8525 23.5754V21.4869Z" fill="#464A48"/>
</svg>
