<svg width="32" height="33" viewBox="0 0 32 33" fill="none" xmlns="http://www.w3.org/2000/svg">
<path d="M22.0934 11.5278H11.9826V9.37948C11.9826 7.14589 13.7984 5.33003 16.032 5.33003C17.6689 5.33003 19.1267 6.3019 19.766 7.80233C19.9536 8.23711 20.4481 8.44172 20.8828 8.25416C21.3176 8.07513 21.5222 7.57215 21.3347 7.13737C20.431 5.00608 18.3509 3.625 16.032 3.625C12.8607 3.625 10.2775 6.20812 10.2775 9.37948V11.5278H9.90244C8.01838 11.5278 6.49237 13.0538 6.49237 14.9379V24.0854C6.49237 25.9694 8.01838 27.4955 9.90244 27.4955H22.0934C23.9775 27.4955 25.5035 25.9694 25.5035 24.0854V14.9379C25.5035 13.0624 23.9775 11.5278 22.0934 11.5278ZM23.7985 24.0854C23.7985 25.0232 23.0312 25.7904 22.0934 25.7904H9.90244C8.96467 25.7904 8.1974 25.0232 8.1974 24.0854V14.9379C8.1974 14.0001 8.96467 13.2329 9.90244 13.2329H22.0934C23.0312 13.2329 23.7985 14.0001 23.7985 14.9379V24.0854ZM17.5325 19.2687C17.5325 19.7972 17.2597 20.2746 16.8504 20.5474V22.6361C16.8504 23.105 16.4668 23.4886 15.9979 23.4886C15.529 23.4886 15.1454 23.105 15.1454 22.6361V20.5474C14.7362 20.2746 14.4634 19.7972 14.4634 19.2687C14.4634 18.4247 15.1539 17.7341 15.9979 17.7341C16.8419 17.7341 17.5325 18.4162 17.5325 19.2687Z" fill="#323735"/>
</svg>
