<svg width="24" height="24" viewBox="0 0 24 24" fill="none" xmlns="http://www.w3.org/2000/svg">
<path d="M17.8691 15.0509C18.4984 14.5695 19.0577 14.0426 19.547 13.4704C20.0394 12.8945 20.4608 12.2394 20.8113 11.5052L20.8183 11.5085L20.8112 11.4943C19.9769 9.80892 18.7795 8.46967 17.2192 7.47676C15.6588 6.48377 13.919 5.9873 12 5.9873C11.5161 5.9873 11.0405 6.02068 10.5732 6.08743C10.1084 6.15383 9.65188 6.25326 9.20358 6.38571L7.67207 4.8542C8.34917 4.57475 9.04262 4.36488 9.75242 4.22457C10.4682 4.08307 11.2174 4.0123 12 4.0123C14.5142 4.0123 16.7533 4.70741 18.7178 6.09751C20.6811 7.48684 22.104 9.28755 22.9866 11.4999C22.6039 12.4804 22.1008 13.3904 21.4775 14.2299C20.8553 15.0677 20.1298 15.8022 19.301 16.4334L17.8691 15.0509ZM2.8 2.81748L21.1823 21.1998L19.7999 22.5822L15.6088 18.4409L15.6188 18.4308L15.5963 18.4379C15.0135 18.621 14.4266 18.7584 13.8356 18.85C13.2446 18.9415 12.6327 18.9873 12 18.9873C9.4858 18.9873 7.24668 18.2922 5.28222 16.9021C3.31887 15.5128 1.89602 13.7121 1.01345 11.4998C1.36281 10.6191 1.8034 9.80068 2.33522 9.0445C2.868 8.28696 3.47567 7.60853 4.15825 7.0092L4.16818 7.00048L4.15892 6.99105L1.4176 4.19988L2.8 2.81748ZM5.55873 8.39086L5.55036 8.38269L5.54166 8.3905C5.05776 8.82434 4.61558 9.29989 4.21512 9.81715C3.81455 10.3345 3.47241 10.8937 3.1887 11.4945L3.1818 11.4912L3.1888 11.5054C4.02313 13.1907 5.2205 14.5299 6.78079 15.5229C8.34121 16.5158 10.0811 17.0123 12 17.0123C12.3339 17.0123 12.6594 16.9914 12.9766 16.9497C13.2934 16.908 13.6185 16.8622 13.9519 16.8122L13.9756 16.8086L13.9591 16.7912L13.0591 15.8412L13.0692 15.8316L13.0467 15.8377C12.8638 15.8876 12.6893 15.925 12.5231 15.9499C12.3571 15.9748 12.1828 15.9873 12 15.9873C10.7533 15.9873 9.69397 15.5511 8.82134 14.6785C7.94871 13.8058 7.5125 12.7465 7.5125 11.4998C7.5125 11.317 7.52496 11.1427 7.54986 10.9767C7.57478 10.8105 7.61217 10.636 7.66206 10.4531L7.67483 10.4566L7.65873 10.4409L5.55873 8.39086ZM16.3878 12.4345C16.3226 12.7197 16.2254 13.001 16.0962 13.2784L14.6635 11.8456C14.8119 11.0604 14.5849 10.3254 13.9844 9.64156C13.3827 8.9563 12.6054 8.68802 11.6543 8.83647L10.2214 7.40357C10.4988 7.27437 10.7801 7.17719 11.0653 7.11199C11.3559 7.04556 11.6675 7.0123 12 7.0123C13.2467 7.0123 14.306 7.44851 15.1787 8.32114C16.0513 9.19377 16.4875 10.2531 16.4875 11.4998C16.4875 11.8323 16.4543 12.1439 16.3878 12.4345Z" fill="#6B6C6B" stroke="#6B6C6B" stroke-width="0.025"/>
</svg>
