<svg width="60" height="49" viewBox="0 0 60 49" fill="none" xmlns="http://www.w3.org/2000/svg">
<path fill-rule="evenodd" clip-rule="evenodd" d="M57.0969 48.34H2.90306C1.3546 48.34 0.0999756 47.1046 0.0999756 45.58V11.7514C0.0999756 10.2277 1.3546 8.99145 2.90306 8.99145H14.8748L19.3642 1.60062C19.8761 0.935809 20.6782 0.5 21.5907 0.5H38.4093C39.1968 0.5 39.9048 0.822499 40.415 1.33646L40.4169 1.33378L45.1772 8.99145H57.0969C58.6454 8.99145 59.9 10.2277 59.9 11.7514V45.58C59.9 47.1046 58.6454 48.34 57.0969 48.34ZM30.0006 14.6524C21.8228 14.6524 15.1937 21.1803 15.1937 29.2314C15.1937 37.2835 21.8228 43.8105 30.0006 43.8105C38.1783 43.8105 44.8074 37.2835 44.8074 29.2314C44.8074 21.1803 38.1783 14.6524 30.0006 14.6524ZM21.4316 29.2314C21.4316 33.8908 25.2685 37.6688 30.0008 37.6688C34.7337 37.6688 38.5699 33.8908 38.5699 29.2314C38.5699 24.5712 34.7337 20.7942 30.0008 20.7942C25.2685 20.7942 21.4316 24.5712 21.4316 29.2314Z" fill="#323735"/>
</svg>
