<svg width="32" height="33" viewBox="0 0 32 33" fill="none" xmlns="http://www.w3.org/2000/svg">
<path d="M17.582 19.5332C17.0929 19.192 16.5702 18.914 16.0236 18.7015C16.7508 18.0406 17.2332 17.1147 17.3171 16.0782C18.4198 15.0037 19.8653 14.4147 21.4149 14.4147C22.6246 14.4147 23.7861 14.7789 24.7741 15.468C25.1281 15.7149 25.6149 15.6282 25.8618 15.2742C26.1086 14.9203 26.0219 14.4333 25.668 14.1865C25.1789 13.8453 24.6561 13.5674 24.1095 13.3548C24.9119 12.6255 25.4164 11.5739 25.4164 10.4068C25.4164 8.20969 23.6291 6.42236 21.432 6.42236C19.2351 6.42236 17.4477 8.20969 17.4477 10.4068C17.4477 11.5692 17.9481 12.617 18.745 13.346C18.6359 13.3879 18.5274 13.4323 18.42 13.4797C17.931 13.6948 17.4714 13.9594 17.0439 14.2702C16.4544 12.8056 15.0191 11.7691 13.3461 11.7691C11.1492 11.7691 9.36172 13.5564 9.36172 15.7533C9.36172 16.9125 9.85936 17.9574 10.652 18.6861C8.53276 19.4801 6.81441 21.1855 6.11486 23.3605C5.8829 24.0817 6.00575 24.8465 6.45197 25.459C6.89819 26.0712 7.58858 26.4224 8.34612 26.4224H15.1431C15.5745 26.4224 15.9243 26.0726 15.9243 25.641C15.9243 25.2096 15.5745 24.8598 15.1431 24.8598H8.34612C8.09355 24.8598 7.86342 24.7428 7.71463 24.5386C7.56584 24.3344 7.52494 24.0794 7.60216 23.8389C8.37435 21.4381 10.7294 19.7614 13.329 19.7614C14.5386 19.7614 15.7002 20.1257 16.6882 20.8147C17.0421 21.0616 17.5291 20.9748 17.776 20.6209C18.0227 20.267 17.9361 19.78 17.582 19.5332ZM21.432 7.9849C22.7674 7.9849 23.8538 9.07131 23.8538 10.4068C23.8538 11.7421 22.7674 12.8286 21.432 12.8286C20.0967 12.8286 19.0101 11.7421 19.0101 10.4068C19.0101 9.07131 20.0967 7.9849 21.432 7.9849ZM13.3461 13.3315C14.6816 13.3315 15.768 14.418 15.768 15.7533C15.768 17.0888 14.6816 18.1752 13.3461 18.1752C12.0107 18.1752 10.9243 17.0888 10.9243 15.7533C10.9243 14.418 12.0107 13.3315 13.3461 13.3315ZM26.0024 22.7114C26.0024 23.1428 25.6526 23.4926 25.221 23.4926H23.0726V25.641C23.0726 26.0726 22.7229 26.4224 22.2915 26.4224C21.8599 26.4224 21.5101 26.0726 21.5101 25.641V23.4926H19.3617C18.9303 23.4926 18.5805 23.1428 18.5805 22.7114C18.5805 22.2799 18.9303 21.9301 19.3617 21.9301H21.5101V19.7817C21.5101 19.3503 21.8599 19.0005 22.2915 19.0005C22.7229 19.0005 23.0726 19.3503 23.0726 19.7817V21.9301H25.221C25.6526 21.9301 26.0024 22.2799 26.0024 22.7114Z" fill="#323735"/>
</svg>
