<svg width="25" height="25" viewBox="0 0 25 25" fill="none" xmlns="http://www.w3.org/2000/svg">
<path d="M6.16797 20.5C5.33464 20.5 4.6263 20.2083 4.04297 19.625C3.45964 19.0417 3.16797 18.3333 3.16797 17.5H2.16797C1.88464 17.5 1.64714 17.4042 1.45547 17.2125C1.2638 17.0208 1.16797 16.7833 1.16797 16.5V6.5C1.16797 5.95 1.3638 5.47917 1.75547 5.0875C2.14714 4.69583 2.61797 4.5 3.16797 4.5H15.168C15.718 4.5 16.1888 4.69583 16.5805 5.0875C16.9721 5.47917 17.168 5.95 17.168 6.5V8.5H19.168C19.4846 8.5 19.7846 8.57083 20.068 8.7125C20.3513 8.85417 20.5846 9.05 20.768 9.3L22.968 12.225C23.0346 12.3083 23.0846 12.4 23.118 12.5C23.1513 12.6 23.168 12.7083 23.168 12.825V16.5C23.168 16.7833 23.0721 17.0208 22.8805 17.2125C22.6888 17.4042 22.4513 17.5 22.168 17.5H21.168C21.168 18.3333 20.8763 19.0417 20.293 19.625C19.7096 20.2083 19.0013 20.5 18.168 20.5C17.3346 20.5 16.6263 20.2083 16.043 19.625C15.4596 19.0417 15.168 18.3333 15.168 17.5H9.16797C9.16797 18.3333 8.8763 19.0417 8.29297 19.625C7.70964 20.2083 7.0013 20.5 6.16797 20.5ZM6.16797 18.5C6.4513 18.5 6.6888 18.4042 6.88047 18.2125C7.07214 18.0208 7.16797 17.7833 7.16797 17.5C7.16797 17.2167 7.07214 16.9792 6.88047 16.7875C6.6888 16.5958 6.4513 16.5 6.16797 16.5C5.88464 16.5 5.64714 16.5958 5.45547 16.7875C5.2638 16.9792 5.16797 17.2167 5.16797 17.5C5.16797 17.7833 5.2638 18.0208 5.45547 18.2125C5.64714 18.4042 5.88464 18.5 6.16797 18.5ZM3.16797 15.5H3.96797C4.2513 15.2 4.5763 14.9583 4.94297 14.775C5.30964 14.5917 5.71797 14.5 6.16797 14.5C6.61797 14.5 7.0263 14.5917 7.39297 14.775C7.75964 14.9583 8.08464 15.2 8.36797 15.5H15.168V6.5H3.16797V15.5ZM18.168 18.5C18.4513 18.5 18.6888 18.4042 18.8805 18.2125C19.0721 18.0208 19.168 17.7833 19.168 17.5C19.168 17.2167 19.0721 16.9792 18.8805 16.7875C18.6888 16.5958 18.4513 16.5 18.168 16.5C17.8846 16.5 17.6471 16.5958 17.4555 16.7875C17.2638 16.9792 17.168 17.2167 17.168 17.5C17.168 17.7833 17.2638 18.0208 17.4555 18.2125C17.6471 18.4042 17.8846 18.5 18.168 18.5ZM17.168 13.5H21.418L19.168 10.5H17.168V13.5Z" fill="#F23030"/>
</svg>
