<svg width="25" height="25" viewBox="0 0 25 25" fill="none" xmlns="http://www.w3.org/2000/svg">
<path d="M11.5 17.7441H13.5V13.7441H17.5V11.7441H13.5V7.74414H11.5V11.7441H7.5V13.7441H11.5V17.7441ZM12.5 22.7441C11.1167 22.7441 9.81667 22.4858 8.6 21.9691C7.38333 21.4358 6.325 20.7191 5.425 19.8191C4.525 18.9191 3.80833 17.8608 3.275 16.6441C2.75833 15.4275 2.5 14.1275 2.5 12.7441C2.5 11.3608 2.75833 10.0608 3.275 8.84414C3.80833 7.62747 4.525 6.56914 5.425 5.66914C6.325 4.76914 7.38333 4.06081 8.6 3.54414C9.81667 3.01081 11.1167 2.74414 12.5 2.74414C13.8833 2.74414 15.1833 3.01081 16.4 3.54414C17.6167 4.06081 18.675 4.76914 19.575 5.66914C20.475 6.56914 21.1833 7.62747 21.7 8.84414C22.2333 10.0608 22.5 11.3608 22.5 12.7441C22.5 14.1275 22.2333 15.4275 21.7 16.6441C21.1833 17.8608 20.475 18.9191 19.575 19.8191C18.675 20.7191 17.6167 21.4358 16.4 21.9691C15.1833 22.4858 13.8833 22.7441 12.5 22.7441ZM12.5 20.7441C14.7333 20.7441 16.625 19.9691 18.175 18.4191C19.725 16.8691 20.5 14.9775 20.5 12.7441C20.5 10.5108 19.725 8.61914 18.175 7.06914C16.625 5.51914 14.7333 4.74414 12.5 4.74414C10.2667 4.74414 8.375 5.51914 6.825 7.06914C5.275 8.61914 4.5 10.5108 4.5 12.7441C4.5 14.9775 5.275 16.8691 6.825 18.4191C8.375 19.9691 10.2667 20.7441 12.5 20.7441Z" fill="#464A48"/>
</svg>
