<svg width="24" height="25" viewBox="0 0 24 25" fill="none" xmlns="http://www.w3.org/2000/svg">
<path d="M11 17.0908H13V13.0908H17V11.0908H13V7.09082H11V11.0908H7V13.0908H11V17.0908ZM12 22.0908C10.6167 22.0908 9.31667 21.8325 8.1 21.3158C6.88333 20.7825 5.825 20.0658 4.925 19.1658C4.025 18.2658 3.30833 17.2075 2.775 15.9908C2.25833 14.7742 2 13.4742 2 12.0908C2 10.7075 2.25833 9.40749 2.775 8.19082C3.30833 6.97415 4.025 5.91582 4.925 5.01582C5.825 4.11582 6.88333 3.40749 8.1 2.89082C9.31667 2.35749 10.6167 2.09082 12 2.09082C13.3833 2.09082 14.6833 2.35749 15.9 2.89082C17.1167 3.40749 18.175 4.11582 19.075 5.01582C19.975 5.91582 20.6833 6.97415 21.2 8.19082C21.7333 9.40749 22 10.7075 22 12.0908C22 13.4742 21.7333 14.7742 21.2 15.9908C20.6833 17.2075 19.975 18.2658 19.075 19.1658C18.175 20.0658 17.1167 20.7825 15.9 21.3158C14.6833 21.8325 13.3833 22.0908 12 22.0908ZM12 20.0908C14.2333 20.0908 16.125 19.3158 17.675 17.7658C19.225 16.2158 20 14.3242 20 12.0908C20 9.85749 19.225 7.96582 17.675 6.41582C16.125 4.86582 14.2333 4.09082 12 4.09082C9.76667 4.09082 7.875 4.86582 6.325 6.41582C4.775 7.96582 4 9.85749 4 12.0908C4 14.3242 4.775 16.2158 6.325 17.7658C7.875 19.3158 9.76667 20.0908 12 20.0908Z" fill="white"/>
</svg>
