<svg width="33" height="33" viewBox="0 0 33 33" fill="none" xmlns="http://www.w3.org/2000/svg">
<path d="M14.3382 22.6854L23.7383 13.2854L21.8716 11.4188L14.3382 18.9521L10.5382 15.1521L8.67158 17.0188L14.3382 22.6854ZM16.2049 29.8854C14.3605 29.8854 12.6271 29.5354 11.0049 28.8354C9.38269 28.1354 7.97158 27.1854 6.77158 25.9854C5.57158 24.7854 4.62158 23.3743 3.92158 21.7521C3.22158 20.1299 2.87158 18.3965 2.87158 16.5521C2.87158 14.7076 3.22158 12.9743 3.92158 11.3521C4.62158 9.72986 5.57158 8.31875 6.77158 7.11875C7.97158 5.91875 9.38269 4.96875 11.0049 4.26875C12.6271 3.56875 14.3605 3.21875 16.2049 3.21875C18.0494 3.21875 19.7827 3.56875 21.4049 4.26875C23.0271 4.96875 24.4382 5.91875 25.6383 7.11875C26.8383 8.31875 27.7882 9.72986 28.4883 11.3521C29.1883 12.9743 29.5382 14.7076 29.5382 16.5521C29.5382 18.3965 29.1883 20.1299 28.4883 21.7521C27.7882 23.3743 26.8383 24.7854 25.6383 25.9854C24.4382 27.1854 23.0271 28.1354 21.4049 28.8354C19.7827 29.5354 18.0494 29.8854 16.2049 29.8854Z" fill="#6A976E"/>
</svg>
