<svg width="24" height="25" viewBox="0 0 24 25" fill="none" xmlns="http://www.w3.org/2000/svg">
<path d="M4 20.5527C3.45 20.5527 2.97917 20.3569 2.5875 19.9652C2.19583 19.5736 2 19.1027 2 18.5527V6.55273C2 6.00273 2.19583 5.5319 2.5875 5.14023C2.97917 4.74857 3.45 4.55273 4 4.55273H20C20.55 4.55273 21.0208 4.74857 21.4125 5.14023C21.8042 5.5319 22 6.00273 22 6.55273V18.5527C22 19.1027 21.8042 19.5736 21.4125 19.9652C21.0208 20.3569 20.55 20.5527 20 20.5527H4ZM20 8.55273L12.525 13.2277C12.4417 13.2777 12.3542 13.3152 12.2625 13.3402C12.1708 13.3652 12.0833 13.3777 12 13.3777C11.9167 13.3777 11.8292 13.3652 11.7375 13.3402C11.6458 13.3152 11.5583 13.2777 11.475 13.2277L4 8.55273V18.5527H20V8.55273ZM12 11.5527L20 6.55273H4L12 11.5527ZM4 8.80273V7.32773V7.35273V7.34023V8.80273Z" fill="#464A48"/>
</svg>
