<svg width="25" height="25" viewBox="0 0 25 25" fill="none" xmlns="http://www.w3.org/2000/svg">
<path d="M20.5277 21.3945L14.2277 15.0945C13.7277 15.4945 13.1527 15.8112 12.5027 16.0445C11.8527 16.2779 11.1611 16.3945 10.4277 16.3945C8.61107 16.3945 7.07357 15.7654 5.81523 14.507C4.5569 13.2487 3.92773 11.7112 3.92773 9.89453C3.92773 8.07786 4.5569 6.54036 5.81523 5.28203C7.07357 4.0237 8.61107 3.39453 10.4277 3.39453C12.2444 3.39453 13.7819 4.0237 15.0402 5.28203C16.2986 6.54036 16.9277 8.07786 16.9277 9.89453C16.9277 10.6279 16.8111 11.3195 16.5777 11.9695C16.3444 12.6195 16.0277 13.1945 15.6277 13.6945L21.9277 19.9945L20.5277 21.3945ZM10.4277 14.3945C11.6777 14.3945 12.7402 13.957 13.6152 13.082C14.4902 12.207 14.9277 11.1445 14.9277 9.89453C14.9277 8.64453 14.4902 7.58203 13.6152 6.70703C12.7402 5.83203 11.6777 5.39453 10.4277 5.39453C9.17773 5.39453 8.11523 5.83203 7.24023 6.70703C6.36523 7.58203 5.92773 8.64453 5.92773 9.89453C5.92773 11.1445 6.36523 12.207 7.24023 13.082C8.11523 13.957 9.17773 14.3945 10.4277 14.3945Z" fill="white"/>
</svg>
