<svg width="14" height="15" viewBox="0 0 14 15" fill="none" xmlns="http://www.w3.org/2000/svg">
<path d="M7.00032 13.1534L6.15449 12.3951C5.17255 11.5103 4.36074 10.7471 3.71908 10.1055C3.07741 9.4638 2.56699 8.88776 2.18783 8.37734C1.80866 7.86693 1.54373 7.39783 1.39303 6.97005C1.24234 6.54227 1.16699 6.10477 1.16699 5.65755C1.16699 4.74366 1.47324 3.98047 2.08574 3.36797C2.69824 2.75547 3.46144 2.44922 4.37533 2.44922C4.88088 2.44922 5.36213 2.55616 5.81908 2.77005C6.27602 2.98394 6.66977 3.28533 7.00032 3.67422C7.33088 3.28533 7.72463 2.98394 8.18157 2.77005C8.63852 2.55616 9.11977 2.44922 9.62532 2.44922C10.5392 2.44922 11.3024 2.75547 11.9149 3.36797C12.5274 3.98047 12.8337 4.74366 12.8337 5.65755C12.8337 6.10477 12.7583 6.54227 12.6076 6.97005C12.4569 7.39783 12.192 7.86693 11.8128 8.37734C11.4337 8.88776 10.9232 9.4638 10.2816 10.1055C9.63991 10.7471 8.8281 11.5103 7.84616 12.3951L7.00032 13.1534Z" fill="#6B6C6B"/>
</svg>
