<svg width="16" height="17" viewBox="0 0 16 17" fill="none" xmlns="http://www.w3.org/2000/svg">
<path d="M8.00033 8.0905C8.36699 8.0905 8.68088 7.95994 8.94199 7.69883C9.2031 7.43772 9.33366 7.12383 9.33366 6.75716C9.33366 6.39049 9.2031 6.07661 8.94199 5.8155C8.68088 5.55438 8.36699 5.42383 8.00033 5.42383C7.63366 5.42383 7.31977 5.55438 7.05866 5.8155C6.79755 6.07661 6.66699 6.39049 6.66699 6.75716C6.66699 7.12383 6.79755 7.43772 7.05866 7.69883C7.31977 7.95994 7.63366 8.0905 8.00033 8.0905ZM8.00033 12.9905C9.35588 11.7461 10.3614 10.6155 11.017 9.59883C11.6725 8.58216 12.0003 7.67938 12.0003 6.8905C12.0003 5.67938 11.6142 4.68772 10.842 3.91549C10.0698 3.14327 9.12255 2.75716 8.00033 2.75716C6.8781 2.75716 5.93088 3.14327 5.15866 3.91549C4.38644 4.68772 4.00033 5.67938 4.00033 6.8905C4.00033 7.67938 4.3281 8.58216 4.98366 9.59883C5.63921 10.6155 6.64477 11.7461 8.00033 12.9905ZM8.00033 14.7572C6.21144 13.2349 4.87533 11.8211 3.99199 10.5155C3.10866 9.20994 2.66699 8.00161 2.66699 6.8905C2.66699 5.22383 3.2031 3.89605 4.27533 2.90716C5.34755 1.91827 6.58921 1.42383 8.00033 1.42383C9.41144 1.42383 10.6531 1.91827 11.7253 2.90716C12.7975 3.89605 13.3337 5.22383 13.3337 6.8905C13.3337 8.00161 12.892 9.20994 12.0087 10.5155C11.1253 11.8211 9.78921 13.2349 8.00033 14.7572Z" fill="#6B6C6B"/>
</svg>
