<svg width="25" height="25" viewBox="0 0 25 25" fill="none" xmlns="http://www.w3.org/2000/svg">
<path d="M11.7939 8.72896C11.8301 8.82088 11.8679 8.91656 11.907 9.01523H9.9368C9.21599 9.01523 8.62942 8.42866 8.62942 7.70785C8.62942 6.98704 9.21599 6.40046 9.9368 6.40046C10.1668 6.40046 10.3484 6.43494 10.5035 6.50934C10.6581 6.58354 10.7932 6.70073 10.925 6.87692C11.1927 7.23481 11.4348 7.81783 11.7939 8.72896ZM11.7939 8.72896L11.8798 8.69511M11.7939 8.72896C11.7939 8.72896 11.7939 8.72896 11.7939 8.72896L11.8798 8.69511M11.8798 8.69511C11.9202 8.79755 11.9624 8.90461 12.0063 9.01523L9.9368 9.10755C9.16501 9.10755 8.5371 8.47965 8.5371 7.70785C8.5371 6.93605 9.16501 6.30814 9.9368 6.30814C10.8933 6.30814 11.165 6.88177 11.8798 8.69511ZM15.5356 9.01523H13.5655C13.6046 8.91656 13.6423 8.82088 13.6785 8.72896C14.0377 7.81783 14.2797 7.23481 14.5474 6.87692C14.6792 6.70073 14.8143 6.58354 14.969 6.50934C15.124 6.43494 15.3057 6.40046 15.5356 6.40046C16.2564 6.40046 16.843 6.98704 16.843 7.70785C16.843 8.42866 16.2564 9.01523 15.5356 9.01523ZM13.6639 6.19286L13.7375 6.24864L13.6639 6.19286C13.3091 6.66084 13.0435 7.29569 12.7362 8.07184C12.4289 7.29566 12.1633 6.66084 11.8085 6.19286L11.7349 6.24864L11.8085 6.19286C11.3384 5.57286 10.7393 5.28268 9.9368 5.28268C8.59948 5.28268 7.51164 6.37053 7.51164 7.70785C7.51164 8.18892 7.65258 8.63777 7.89513 9.01523H6.17315C5.35036 9.01523 4.68112 9.68448 4.68112 10.5073V11.4404C4.68112 12.0659 5.06787 12.602 5.61425 12.8235V19.9009C5.61425 20.7236 6.2835 21.3929 7.10628 21.3929H18.3662C19.1889 21.3929 19.8582 20.7236 19.8582 19.9009V12.8235C20.4046 12.602 20.7913 12.0659 20.7913 11.4404V10.5073C20.7913 9.68448 20.1221 9.01523 19.2993 9.01523H17.5773C17.8199 8.63777 17.9608 8.18892 17.9608 7.70785C17.9608 6.37053 16.873 5.28268 15.5356 5.28268C14.7331 5.28268 14.134 5.57286 13.6639 6.19286ZM10.7776 20.2751H7.10628C6.90001 20.2751 6.73204 20.1071 6.73204 19.9009V12.9324H10.7776V20.2751ZM10.7776 11.8146H6.17315C5.96687 11.8146 5.7989 11.6467 5.7989 11.4404V10.5073C5.7989 10.301 5.96687 10.133 6.17315 10.133H10.7776V11.8146ZM11.8954 20.2751V10.133H11.8956H11.8978H11.8999H11.9021H11.9043H11.9065H11.9088H11.911H11.9133H11.9156H11.9179H11.9203H11.9226H11.925H11.9274H11.9298H11.9323H11.9347H11.9372H11.9397H11.9422H11.9447H11.9473H11.9499H11.9524H11.9551H11.9577H11.9603H11.963H11.9657H11.9684H11.9711H11.9738H11.9766H11.9793H11.9821H11.9849H11.9877H11.9906H11.9934H11.9963H11.9992H12.0021H12.005H12.008H12.0109H12.0139H12.0169H12.0199H12.0229H12.026H12.029H12.0321H12.0352H12.0383H12.0414H12.0446H12.0477H12.0509H12.0541H12.0573H12.0605H12.0638H12.067H12.0703H12.0735H12.0768H12.0802H12.0835H12.0868H12.0902H12.0935H12.0969H12.1003H12.1037H12.1072H12.1106H12.1141H12.1175H12.121H12.1245H12.128H12.1316H12.1351H12.1387H12.1422H12.1458H12.1494H12.153H12.1566H12.1603H12.1639H12.1676H12.1712H12.1749H12.1786H12.1823H12.1861H12.1898H12.1936H12.1973H12.2011H12.2049H12.2087H12.2125H12.2163H12.2201H12.224H12.2278H12.2317H12.2356H12.2395H12.2434H12.2473H12.2512H12.2552H12.2591H12.2631H12.2671H12.271H12.275H12.279H12.283H12.2871H12.2911H12.2952H12.2992H12.3033H12.3073H12.3114H12.3155H12.3196H12.3238H12.3279H12.332H12.3362H12.3403H12.3445H12.3486H12.3528H12.357H12.3612H12.3654H12.3696H12.3739H12.3781H12.3823H12.3866H12.3909H12.3951H12.3994H12.4037H12.408H12.4123H12.4166H12.4209H12.4252H12.4296H12.4339H12.4382H12.4426H12.447H12.4513H12.4557H12.4601H12.4645H12.4689H12.4733H12.4777H12.4821H12.4866H12.491H12.4954H12.4999H12.5043H12.5088H12.5132H12.5177H12.5222H12.5267H12.5312H12.5356H12.5401H12.5447H12.5492H12.5537H12.5582H12.5627H12.5673H12.5718H12.5763H12.5809H12.5854H12.59H12.5945H12.5991H12.6037H12.6083H12.6128H12.6174H12.622H12.6266H12.6312H12.6358H12.6404H12.645H12.6496H12.6542H12.6588H12.6635H12.6681H12.6727H12.6773H12.682H12.6866H12.6913H12.6959H12.7005H12.7052H12.7098H12.7145H12.7192H12.7238H12.7285H12.7331H12.7378H12.7425H12.7471H12.7518H12.7565H12.7612H12.7658H12.7705H12.7752H12.7799H12.7846H12.7892H12.7939H12.7986H12.8033H12.808H12.8127H12.8174H12.8221H12.8267H12.8314H12.8361H12.8408H12.8455H12.8502H12.8549H12.8596H12.8643H12.869H12.8737H12.8784H12.8831H12.8877H12.8924H12.8971H12.9018H12.9065H12.9112H12.9159H12.9206H12.9253H12.9299H12.9346H12.9393H12.944H12.9487H12.9533H12.958H12.9627H12.9673H12.972H12.9767H12.9813H12.986H12.9907H12.9953H13H13.0046H13.0093H13.0139H13.0186H13.0232H13.0279H13.0325H13.0371H13.0418H13.0464H13.051H13.0556H13.0602H13.0649H13.0695H13.0741H13.0787H13.0833H13.0879H13.0925H13.097H13.1016H13.1062H13.1108H13.1153H13.1199H13.1245H13.129H13.1336H13.1381H13.1427H13.1472H13.1517H13.1562H13.1608H13.1653H13.1698H13.1743H13.1788H13.1833H13.1878H13.1922H13.1967H13.2012H13.2056H13.2101H13.2145H13.219H13.2234H13.2279H13.2323H13.2367H13.2411H13.2455H13.2499H13.2543H13.2587H13.263H13.2674H13.2718H13.2761H13.2805H13.2848H13.2891H13.2935H13.2978H13.3021H13.3064H13.3107H13.315H13.3192H13.3235H13.3277H13.332H13.3362H13.3405H13.3447H13.3489H13.3531H13.3573H13.3615H13.3657H13.3698H13.374H13.3781H13.3823H13.3864H13.3905H13.3947H13.3988H13.4028H13.4069H13.411H13.4151H13.4191H13.4232H13.4272H13.4312H13.4352H13.4392H13.4432H13.4472H13.4512H13.4551H13.4591H13.463H13.4669H13.4708H13.4747H13.4786H13.4825H13.4864H13.4902H13.494H13.4979H13.5017H13.5055H13.5093H13.5131H13.5168H13.5206H13.5244H13.5281H13.5318H13.5355H13.5392H13.5429H13.5466H13.5502H13.5539H13.5575H13.5611H13.5647H13.5683H13.5719H13.5754H13.577V20.2751H11.8954ZM18.7404 19.9009C18.7404 20.1071 18.5724 20.2751 18.3662 20.2751H14.6948V12.9324H18.7404V19.9009ZM19.6735 11.4404C19.6735 11.6467 19.5056 11.8146 19.2993 11.8146H14.6948V10.133H19.2993C19.5056 10.133 19.6735 10.301 19.6735 10.5073V11.4404Z" fill="#6A976E" stroke="#6A976E" stroke-width="0.184645"/>
</svg>
