<svg width="24" height="25" viewBox="0 0 24 25" fill="none" xmlns="http://www.w3.org/2000/svg">
<path d="M19.95 21.5527C17.8667 21.5527 15.8083 21.0986 13.775 20.1902C11.7417 19.2819 9.89167 17.9944 8.225 16.3277C6.55833 14.6611 5.27083 12.8111 4.3625 10.7777C3.45417 8.7444 3 6.68607 3 4.60273C3 4.30273 3.1 4.05273 3.3 3.85273C3.5 3.65273 3.75 3.55273 4.05 3.55273H8.1C8.33333 3.55273 8.54167 3.6319 8.725 3.79023C8.90833 3.94857 9.01667 4.13607 9.05 4.35273L9.7 7.85273C9.73333 8.1194 9.725 8.3444 9.675 8.52773C9.625 8.71107 9.53333 8.8694 9.4 9.00273L6.975 11.4527C7.30833 12.0694 7.70417 12.6652 8.1625 13.2402C8.62083 13.8152 9.125 14.3694 9.675 14.9027C10.1917 15.4194 10.7333 15.8986 11.3 16.3402C11.8667 16.7819 12.4667 17.1861 13.1 17.5527L15.45 15.2027C15.6 15.0527 15.7958 14.9402 16.0375 14.8652C16.2792 14.7902 16.5167 14.7694 16.75 14.8027L20.2 15.5027C20.4333 15.5694 20.625 15.6902 20.775 15.8652C20.925 16.0402 21 16.2361 21 16.4527V20.5027C21 20.8027 20.9 21.0527 20.7 21.2527C20.5 21.4527 20.25 21.5527 19.95 21.5527ZM6.025 9.55273L7.675 7.90273L7.25 5.55273H5.025C5.10833 6.23607 5.225 6.91107 5.375 7.57773C5.525 8.2444 5.74167 8.90273 6.025 9.55273ZM14.975 18.5027C15.625 18.7861 16.2875 19.0111 16.9625 19.1777C17.6375 19.3444 18.3167 19.4527 19 19.5027V17.3027L16.65 16.8277L14.975 18.5027Z" fill="#464A48"/>
</svg>
