<svg width="26" height="27" viewBox="0 0 26 27" fill="none" xmlns="http://www.w3.org/2000/svg">
<path d="M12.9603 18.7521L8.47735 21.4527C8.27931 21.5787 8.07226 21.6327 7.85622 21.6147C7.64018 21.5967 7.45114 21.5247 7.2891 21.3987C7.12707 21.2727 7.00105 21.1151 6.91103 20.9261C6.82101 20.737 6.803 20.5255 6.85702 20.2915L8.04526 15.1874L4.07545 11.7577C3.89541 11.5957 3.78289 11.4111 3.73788 11.2041C3.69287 10.9971 3.70637 10.7945 3.77839 10.5965C3.8504 10.3984 3.95843 10.2364 4.10246 10.1104C4.24648 9.98435 4.44452 9.90334 4.69658 9.86733L9.93564 9.40824L11.9611 4.60126C12.0511 4.38521 12.1906 4.22318 12.3796 4.11516C12.5687 4.00714 12.7622 3.95312 12.9603 3.95312C13.1583 3.95312 13.3518 4.00714 13.5409 4.11516C13.7299 4.22318 13.8694 4.38521 13.9595 4.60126L15.9849 9.40824L21.2239 9.86733C21.476 9.90334 21.674 9.98435 21.8181 10.1104C21.9621 10.2364 22.0701 10.3984 22.1421 10.5965C22.2141 10.7945 22.2276 10.9971 22.1826 11.2041C22.1376 11.4111 22.0251 11.5957 21.8451 11.7577L17.8753 15.1874L19.0635 20.2915C19.1175 20.5255 19.0995 20.737 19.0095 20.9261C18.9195 21.1151 18.7934 21.2727 18.6314 21.3987C18.4694 21.5247 18.2803 21.5967 18.0643 21.6147C17.8483 21.6327 17.6412 21.5787 17.4432 21.4527L12.9603 18.7521Z" fill="#FF9900"/>
</svg>
