<svg width="44" height="44" viewBox="0 0 44 44" fill="none" xmlns="http://www.w3.org/2000/svg">
<path d="M21.8016 31.5498L14.3301 36.0507C14 36.2607 13.6549 36.3508 13.2949 36.3208C12.9348 36.2908 12.6197 36.1707 12.3497 35.9607C12.0796 35.7506 11.8696 35.4881 11.7196 35.173C11.5695 34.858 11.5395 34.5054 11.6295 34.1153L13.6099 25.6086L6.99359 19.8924C6.69353 19.6224 6.50599 19.3148 6.43097 18.9697C6.35596 18.6247 6.37846 18.2871 6.49849 17.957C6.61851 17.627 6.79855 17.3569 7.0386 17.1469C7.27865 16.9368 7.60871 16.8018 8.0288 16.7418L16.7606 15.9766L20.1363 7.96499C20.2863 7.60491 20.5188 7.33486 20.8339 7.15482C21.149 6.97478 21.4715 6.88477 21.8016 6.88477C22.1317 6.88477 22.4542 6.97478 22.7693 7.15482C23.0844 7.33486 23.3169 7.60491 23.4669 7.96499L26.8426 15.9766L35.5744 16.7418C35.9945 16.8018 36.3246 16.9368 36.5646 17.1469C36.8047 17.3569 36.9847 17.627 37.1047 17.957C37.2247 18.2871 37.2473 18.6247 37.1722 18.9697C37.0972 19.3148 36.9097 19.6224 36.6096 19.8924L29.9933 25.6086L31.9737 34.1153C32.0637 34.5054 32.0337 34.858 31.8837 35.173C31.7336 35.4881 31.5236 35.7506 31.2535 35.9607C30.9835 36.1707 30.6684 36.2908 30.3083 36.3208C29.9483 36.3508 29.6032 36.2607 29.2731 36.0507L21.8016 31.5498Z" fill="#BCC2C0"/>
</svg>
