<svg width="16" height="17" viewBox="0 0 16 17" fill="none" xmlns="http://www.w3.org/2000/svg">
<path d="M5.99967 10.7559H7.33301V8.75586H9.33301V7.42253H7.33301V5.42253H5.99967V7.42253H3.99967V8.75586H5.99967V10.7559ZM2.66634 13.4225C2.29967 13.4225 1.98579 13.292 1.72467 13.0309C1.46356 12.7697 1.33301 12.4559 1.33301 12.0892V4.08919C1.33301 3.72253 1.46356 3.40864 1.72467 3.14753C1.98579 2.88641 2.29967 2.75586 2.66634 2.75586H10.6663C11.033 2.75586 11.3469 2.88641 11.608 3.14753C11.8691 3.40864 11.9997 3.72253 11.9997 4.08919V7.08919L14.6663 4.42253V11.7559L11.9997 9.08919V12.0892C11.9997 12.4559 11.8691 12.7697 11.608 13.0309C11.3469 13.292 11.033 13.4225 10.6663 13.4225H2.66634ZM2.66634 12.0892H10.6663V4.08919H2.66634V12.0892Z" fill="#6B6C6B"/>
</svg>
