<svg width="24" height="25" viewBox="0 0 24 25" fill="none" xmlns="http://www.w3.org/2000/svg">
<g clip-path="url(#clip0_1074_41876)">
<path d="M2 20.5527C1.45 20.5527 0.979167 20.3569 0.5875 19.9652C0.195833 19.5736 0 19.1027 0 18.5527H4C3.45 18.5527 2.97917 18.3569 2.5875 17.9652C2.19583 17.5736 2 17.1027 2 16.5527V5.55273C2 5.00273 2.19583 4.5319 2.5875 4.14023C2.97917 3.74857 3.45 3.55273 4 3.55273H20C20.55 3.55273 21.0208 3.74857 21.4125 4.14023C21.8042 4.5319 22 5.00273 22 5.55273V16.5527C22 17.1027 21.8042 17.5736 21.4125 17.9652C21.0208 18.3569 20.55 18.5527 20 18.5527H24C24 19.1027 23.8042 19.5736 23.4125 19.9652C23.0208 20.3569 22.55 20.5527 22 20.5527H2ZM12 19.5527C12.2833 19.5527 12.5208 19.4569 12.7125 19.2652C12.9042 19.0736 13 18.8361 13 18.5527C13 18.2694 12.9042 18.0319 12.7125 17.8402C12.5208 17.6486 12.2833 17.5527 12 17.5527C11.7167 17.5527 11.4792 17.6486 11.2875 17.8402C11.0958 18.0319 11 18.2694 11 18.5527C11 18.8361 11.0958 19.0736 11.2875 19.2652C11.4792 19.4569 11.7167 19.5527 12 19.5527ZM4 16.5527H20V5.55273H4V16.5527Z" fill="#464A48"/>
</g>
<defs>
<clipPath id="clip0_1074_41876">
<rect width="24" height="24" fill="white" transform="translate(0 0.552734)"/>
</clipPath>
</defs>
</svg>
